<?xml version="1.0" encoding="UTF-8" standalone="no"?>
<svg xmlns="http://www.w3.org/2000/svg" width="100" height="291.40726">
  <g transform="translate(-462.40682 -396.34587)">
    <g transform="translate(65.731273 197.64855) scale(.72773)">
      <g transform="translate(242.43661 -8.0812204)">
        <path fill="#e2d60e" d="M348.40768 679.75173c-.66222-1.23737-.94438-3.83515-.63479-5.84425.3555-2.30701.0568-4.28567-.82482-5.46394-.76018-1.01596-1.13771-2.48419-.83895-3.26273.29875-.77855.13376-1.97231-.36664-2.6528-.5365-.72958-.58601-8.62333-.12065-19.23727.84736-19.32672-.32557-38.14293-2.79081-44.77024-.77135-2.07363-1.40246-5.73117-1.40246-8.12787s-.62196-5.8751-1.38213-7.72977c-.76017-1.85466-1.70748-6.95476-2.10513-11.33354-.39765-4.37878-1.14792-9.07903-1.66726-10.445-.51934-1.36597-1.34909-8.13333-1.84389-15.03858-.88602-12.36497-2.26202-17.3664-5.52234-20.07222-.9428-.78246-1.47925-3.03121-1.47925-6.20093 0-2.7353-.63568-6.1677-1.41261-7.62756-2.15982-4.05828-4.66927-19.13279-3.53717-21.24813 1.40617-2.62746 1.15268-7.25564-.51842-9.46503-.81782-1.08126-1.48708-4.15601-1.51082-6.94113-.0234-2.75-.678-7.09351-1.45455-9.65225-.77656-2.55873-1.70625-8.40873-2.06598-13-.35973-4.59126-1.29449-10.04436-2.07725-12.11799-.78276-2.07363-1.4232-7.12702-1.4232-11.22976 0-4.10274-.63624-9.15613-1.41386-11.22976-.77763-2.07363-1.66374-6.19446-1.96913-9.15739-.3054-2.96293-1.24416-6.14836-2.08614-7.07874-.84198-.93037-1.53087-3.31573-1.53087-5.3008 0-1.98506-.64197-6.44963-1.42661-9.92126-.832-3.68122-1.62004-14.23116-1.8907-25.31205l-.4641-19 5.39071-10.87772c2.96488-5.98275 5.3907-11.27486 5.3907-11.76026 0-.48539 1.575-3.1233 3.5-5.86202 1.925-2.73872 3.5-5.19456 3.5-5.45744 0-1.43057 12.76483-13.41286 16.78703-15.75792 8.11902-4.73361 15.34739-7.78464 18.44306-7.78464 1.63967 0 5.68366-.70027 8.98663-1.55616 5.43446-1.40821 6.43961-1.40821 10.57248 0 2.51189.85589 5.59526 1.55616 6.85192 1.55616 2.19694 0 9.40499 2.4967 16.01001 5.54548 1.73312.79999 3.81552 1.45452 4.62755 1.45452.81204 0 2.03663.675 2.72132 1.5.68469.825 1.86933 1.5 2.63254 1.5 3.51915 0 14.36746 13.14437 14.36746 17.40835 0 .74072.61111 1.85394 1.35803 2.47382.74691.61989 1.64328 3.85623 1.99192 7.19187.34864 3.33565 1.31253 7.0337 2.14197 8.21789.82945 1.1842 1.50808 3.12286 1.50808 4.30813 0 1.18528.65295 2.69695 1.45099 3.35927.79804.66231 1.73237 3.30491 2.07627 5.87244.34391 2.56753 1.29463 6.43649 2.11272 8.59769 1.12704 2.97737 1.41143 7.37134 1.17373 18.13468-.28814 13.04749-.15071 14.38617 1.68629 16.42553 2.71579 3.01494 2.8772 15.27097.25 18.98284-.9625 1.35987-1.75 3.6658-1.75 5.12427 0 1.45847-.675 4.56492-1.5 6.90322-.825 2.3383-1.50208 5.20738-1.50463 6.37573-.005 2.46175-5.4052 8.62427-7.55692 8.62427-2.07298 0-5.92838 8.96511-8.38587 19.5-2.6459 11.34252-2.89032 18.91683-.68894 21.34933 4.77974 5.28155 2.37041 18.30074-5.59116 30.21277-4.02791 6.02652-6.77248 11.909-6.77248 14.51557 0 .90305-2.25 4.10377-5 7.11271-4.54381 4.97165-5 5.90816-5 10.26448 0 2.63653-.61855 6.54684-1.37455 8.68958-.75601 2.14275-1.70593 6.36182-2.11095 9.37573-.40502 3.01391-1.36147 6.99729-2.12545 8.85195-1.94783 4.72864-1.90141 31.35435.068 38.98354 2.11223 8.18258 2.74449 40.94061.82032 42.50211-.77413.62823-4.04778 3.72973-7.27479 6.89223-3.227 3.1625-6.32316 5.75-6.88034 5.75-.55719 0-1.60012 1.09905-2.31763 2.44234-6.23255 11.66825-14.93842 22.53625-18.08089 22.57131-.67302.008-2.19765.27492-3.38806.59425-1.57636.42285-2.48825-.0246-3.3565-1.64691h-.00004z"/>
        <path fill="#9db102" d="M348.40768 679.75173c-.66222-1.23737-.94438-3.83515-.63479-5.84425.3555-2.30701.0568-4.28567-.82482-5.46394-.76018-1.01596-1.13771-2.48419-.83895-3.26273.29875-.77855.13376-1.97231-.36664-2.6528-.5365-.72958-.58601-8.62333-.12065-19.23727.84736-19.32672-.32557-38.14293-2.79081-44.77024-.77135-2.07363-1.40246-5.73117-1.40246-8.12787s-.62196-5.8751-1.38213-7.72977c-.76017-1.85466-1.70748-6.95476-2.10513-11.33354-.39765-4.37878-1.14792-9.07903-1.66726-10.445-.51934-1.36597-1.34909-8.13333-1.84389-15.03858-.88602-12.36497-2.26202-17.3664-5.52234-20.07222-.9428-.78246-1.47925-3.03121-1.47925-6.20093 0-2.7353-.63568-6.1677-1.41261-7.62756-2.15982-4.05828-4.66927-19.13279-3.53717-21.24813 1.35909-2.53949 1.11137-6.99951-.55022-9.90616-.78602-1.375-1.44995-4.525-1.47539-7-.0254-2.475-.68163-6.59351-1.45818-9.15225-.77656-2.55873-1.70625-8.40873-2.06598-13-.35973-4.59126-1.29449-10.04436-2.07725-12.11799-.78276-2.07363-1.4232-7.12702-1.4232-11.22976 0-4.10274-.63624-9.15613-1.41386-11.22976-.77763-2.07363-1.65731-6.14015-1.95484-9.03672-.29753-2.89656-1.2363-6.25919-2.08614-7.4725-.84984-1.21332-1.54516-3.65298-1.54516-5.42147 0-1.7685-.64197-6.05587-1.42661-9.5275-.832-3.68122-1.62004-14.23116-1.8907-25.31205l-.4641-19 5.39071-10.87772c2.96488-5.98275 5.3907-11.27486 5.3907-11.76026 0-.48539 1.575-3.1233 3.5-5.86202 1.925-2.73872 3.5-5.19456 3.5-5.45744 0-1.43057 12.76483-13.41286 16.78703-15.75792 8.11902-4.73361 15.34739-7.78464 18.44306-7.78464 1.63967 0 5.68366-.70027 8.98663-1.55616 5.43446-1.40821 6.43961-1.40821 10.57248 0 2.51189.85589 5.59526 1.55616 6.85192 1.55616 2.19694 0 9.40499 2.4967 16.01001 5.54548 1.73312.79999 3.81552 1.45452 4.62755 1.45452.81204 0 2.03663.675 2.72132 1.5.68469.825 1.86933 1.5 2.63254 1.5 3.51915 0 14.36746 13.14437 14.36746 17.40835 0 .74072.61111 1.85394 1.35803 2.47382.74691.61989 1.64328 3.85623 1.99192 7.19187.34864 3.33565 1.31253 7.0337 2.14197 8.21789.82945 1.1842 1.50808 3.12286 1.50808 4.30813 0 1.18528.65295 2.69695 1.45099 3.35927.79804.66231 1.73237 3.30491 2.07627 5.87244.34391 2.56753 1.29463 6.43649 2.11272 8.59769 1.12704 2.97737 1.41143 7.37134 1.17373 18.13468-.28814 13.04749-.15071 14.38617 1.68629 16.42553 2.71579 3.01494 2.8772 15.27097.25 18.98284-.9625 1.35987-1.75 3.6658-1.75 5.12427 0 1.45847-.675 4.56492-1.5 6.90322-.825 2.3383-1.50208 5.20738-1.50463 6.37573-.005 2.46175-5.4052 8.62427-7.55692 8.62427-2.07298 0-5.92838 8.96511-8.38587 19.5-2.6459 11.34252-2.89032 18.91683-.68894 21.34933 4.77974 5.28155 2.37041 18.30074-5.59116 30.21277-4.0513 6.0615-6.77248 11.91138-6.77248 14.55916 0 .92702-2.25 4.06454-5 6.97226-4.61012 4.87452-5 5.6715-5 10.22089 0 2.71378-.61855 6.68729-1.37455 8.83003-.75601 2.14275-1.70593 6.36182-2.11095 9.37573-.40502 3.01391-1.36147 6.99729-2.12545 8.85195-1.94783 4.72864-1.90141 31.35435.068 38.98354 2.11223 8.18258 2.74449 40.94061.82032 42.50211-.77413.62823-4.04778 3.72973-7.27479 6.89223-3.227 3.1625-6.32316 5.75-6.88034 5.75-.55719 0-1.60012 1.09905-2.31763 2.44234-6.23255 11.66825-14.93842 22.53625-18.08089 22.57131-.67302.008-2.19765.27492-3.38806.59425-1.57636.42285-2.48825-.0246-3.3565-1.64691zm10.59176-6.38739c.33495-1.33453 1.46852-3.20427 2.51906-4.15499 1.05053-.95072 1.91006-2.6033 1.91006-3.67239s1.28317-3.14246 2.8515-4.6075c1.56832-1.46503 3.61487-4.13991 4.54789-5.94417.93302-1.80426 2.77249-3.6896 4.0877-4.18964 1.31522-.50005 2.92-1.89705 3.56618-3.10445.64618-1.2074 2.69854-3.71894 4.5608-5.5812 3.06386-3.06385 3.38447-3.9297 3.37062-9.10259-.016-5.9529-.31998-6.80248-3.26029-9.11036-1.53707-1.20647-2.24231-1.14234-5.25.47741-1.91092 1.0291-3.4744 2.21002-3.4744 2.62427 0 1.0579-6.77578 11.5354-7.91543 12.23974-.51626.31907-1.47659 2.21007-2.13406 4.20222-.65747 1.99215-2.20451 5.10911-3.43788 6.92658-1.5107 2.22614-2.46595 5.57228-2.92727 10.25398-.49333 5.00654-1.23005 7.44295-2.63507 8.71448-1.07266.97074-1.95029 2.82024-1.95029 4.11 0 3.41154 4.71149 3.34271 5.57089-.0814zm2.57223-13.46494c-1.79093-1.13353-.67224-6.31983 1.85689-8.60866 1.03765-.93906 2.19322-3.12322 2.56794-4.85369.37471-1.73047 2.36914-4.72131 4.43206-6.64631 2.27182-2.11993 4.04342-4.88007 4.49298-7 1.03032-4.8586 1.25648-5.07128 4.04273-3.80178 3.09005 1.40792 3.52604 7.16318.6589 8.69763-.99296.53141-2.67029 2.57225-3.7274 4.53518-1.05711 1.96293-2.26969 3.56897-2.69461 3.56897-.42493 0-.7726.88434-.7726 1.9652 0 1.08087-1.2375 3.44485-2.75 5.25329-1.5125 1.80845-3.23215 4.15983-3.82144 5.22528-1.29662 2.34431-2.4835 2.80541-4.28545 1.66489zm6.34672-38.85866c.43123-2.67173.30699-4.25-.33454-4.25-1.14207 0-1.73786 1.64376-2.71839 7.5-.59802 3.57165-.50714 3.83937.84861 2.5.8351-.825 1.82704-3.4125 2.20432-5.75zm.51017-12.75c0-.825-.45-1.5-1-1.5s-1 .675-1 1.5.45 1.5 1 1.5 1-.675 1-1.5zm-.1493-17.75343c.0301-11.06904-1.18666-19.21813-3.04056-20.36391-.5623-.34752-.82829 1.78173-.65795 5.267.15726 3.21769-.0585 6.40354-.47937 7.07967-.42092.67614-.31556 2.0697.23413 3.09681.69654 1.30149.64238 2.22453-.17871 3.04562-.90421.90421-.89333 1.63425.0468 3.13963.67372 1.07881 1.22495 3.28077 1.22495 4.89325 0 1.61248.27215 3.641.60478 4.50783 1.41209 3.67983 2.21731-.14417 2.24592-10.6659zm1.6493-22.74657c-1.95517-2.16044-3.5-2.60182-3.5-1 0 .55.675 1 1.5 1s1.5.45 1.5 1 .51974 1 1.15499 1c.65499 0 .37144-.86581-.65499-2zm-5.5-8.5c0-1.925-.45-3.5-1-3.5-1.10888 0-1.38677 5.2799-.33333 6.33333 1.15094 1.15095 1.33333.76338 1.33333-2.83333zm6.46899-8.55017c-.89116-1.44193-4.46899-1.1349-4.46899.3835 0 .73334.28417 1.6175.63148 1.96482.94236.94235 4.51869-1.24615 3.83751-2.34832zm-12.46899-12.50885c0-.85746-.45734-1.27636-1.01631-.9309s-.75742 1.04702-.44098 1.55902c.85723 1.38704 1.45729 1.12841 1.45729-.62812zm-13.73503-21.92931c-.58895-1.91894-.64791-3.86855-.14083-4.65639 1.17236-1.82146.0592-6.74399-2.27062-10.04074-1.43527-2.03097-1.74569-3.63669-1.27368-6.58845.51826-3.24102.21921-4.33987-1.76322-6.47896-1.31304-1.41678-3.99613-2.87778-5.96245-3.24666-3.11855-.58505-3.8528-.31767-5.74961 2.09373-1.83138 2.32823-1.96031 2.97862-.81707 4.12186 1.58305 1.58305 4.71251.70445 4.71251-1.32305 0-1.9419 2.3533-1.73726 5.03997.43827 1.76348 1.42798 2.11177 2.42802 1.58147 4.5409-.37404 1.49029-1.08579 2.45887-1.58166 2.15241-.49587-.30647-1.18672-.0958-1.53523.46805-1.106 1.78954.39066 4.45083 3.49288 6.21085 2.76503 1.56872 3.00257 2.13762 3.00257 7.19098 0 3.01812-.46971 5.77779-1.04381 6.1326-1.58048.9768-3.95619-1.47411-3.95619-4.08142 0-1.42469-1.14932-3.12785-3-4.44565-1.92533-1.37096-3-3.00735-3-4.56809 0-2.11841-1.90449-3.67515-2.05762-1.68191-.0317.4125-.23549 2.44102-.45289 4.50781-.32851 3.12312.019 4.02927 2.05762 5.36501 1.77844 1.16528 2.45289 2.50886 2.45289 4.88643 0 2.26873.93145 4.27636 3.02269 6.51504l3.02268 3.23579 3.61637-3.72365c3.34433-3.44355 3.54015-3.97197 2.60323-7.02476zm21.44554-.51067c-.72294-2.76453 1.29269-3.7171 2.98068-1.40865 1.98836 2.71925 3.20762.34279 3.105-6.05192-.10428-6.49792-.66731-7.35229-2.91704-4.42646l-1.83468 2.38603-.0222-2.28138c-.0122-1.25477.54027-2.49719 1.22777-2.76094.88578-.33982 1.22052-3.17159 1.14883-9.71862-.0556-5.08148.29769-10.02656.78518-10.98906.53247-1.0513.49204-2.48679-.10127-3.59539-.71329-1.3328-.55941-2.45677.55401-4.04638.8479-1.21055 1.3214-2.77492 1.05222-3.47638s.29753-1.76684 1.25935-2.3675c1.22118-.76264 1.95244-3.00367 2.42389-7.42824.37132-3.48486 1.13618-10.77257 1.69969-16.1949.56351-5.42234 1.62433-10.82234 2.35737-12 1.94625-3.12672 2.70664-11.96042 3.5844-41.64121.76302-25.80067 1.83982-36.25349 3.95231-38.36597 1.26985-1.26986 1.35946-5.88845.13938-7.18403-.83516-.88685-1.59093-3.64924-4.31546-15.77326-1.28461-5.71644-3.29327-7.29532-10.48025-8.23787-5.18746-.68033-5.19312-.67799-10.1691 4.19021-3.44879 3.3741-5.26478 6.10011-5.90955 8.87092-.51194 2.2-.88584 14.8-.8309 28 .0846 20.32093.38826 24.99641 1.98104 30.5 1.65455 5.71705 1.78534 8.24657 1.08576 21-1.06855 19.47965-.60536 38.27201 1.04227 42.28725.47057 1.14677.0935 2.49436-1.05236 3.76047-1.72153 1.90227-1.7031 2.06121.51237 4.41948 1.80606 1.92246 2.16167 3.12851 1.66084 5.63268-.36762 1.83808-.16463 3.75596.47969 4.53232.71783.86493.83766 2.68985.33532 5.10684-.42992 2.06853-.62783 4.21096-.4398 4.76096.18803.55.45834 6.59773.6007 13.4394.15679 7.5352.75062 13.35831 1.50624 14.7702.95834 1.79068.97401 2.60421.0676 3.51061-1.76934 1.76934-1.42881 2.77979.93684 2.77979 1.62395 0 1.99495-.4653 1.59388-1.999zm31.91386 1.23369c.6184-.40408 1.46045-2.30969 1.87121-4.23469.86705-4.06335 4.39151-10.38424 7.84703-14.07315 1.3257-1.41523 2.73779-3.66523 3.138-5 .4002-1.33477 1.40168-3.49356 2.2255-4.79731.89603-1.41803 1.47114-4.60734 1.43136-7.93767-.0569-4.76043-.45647-5.90231-2.75752-7.87954-1.48007-1.27178-3.76426-2.31233-5.07598-2.31233-2.90077 0-8.30397 3.81252-8.30397 5.85932 0 .81576-.72456 2.28382-1.61012 3.26237-1.16152 1.28345-1.58275 3.604-1.51187 8.32874.054 3.60226-.25601 6.54957-.68899 6.54957-2.39124 0-4.67093 20.18476-2.52235 22.33333.88467.88467 4.5456.82406 5.9577-.0986zm-3.58919-8.16895c-1.44172-2.69389-1.29115-4.75354.39481-5.4005 1.59935-.61373 2.94601-7.70742 2.81374-14.82174-.0784-4.21568.29237-4.99668 3.91636-8.25 3.73324-3.3514 6.73856-4.58696 6.91642-2.8435.15018 1.47216.74023 3.77468 1.36034 5.3084.35739.88395-.21977 2.53829-1.33359 3.82254-1.62804 1.87715-2.31744 2.0748-4.03347 1.15641-2.2807-1.22059-2.36073-.84843-2.24971 10.46265.0361 3.67616-.59928 5.99288-2.39969 8.75-2.76109 4.22829-3.89029 4.60902-5.38521 1.81574zm-20.03518-9.62476c0-.85746-.45-1.2809-1-.94098-.55.33992-1 1.04148-1 1.55902 0 .51754.45.94098 1 .94098s1-.70156 1-1.55902zm-40-2.44098c0-.55-.45-1-1-1s-1 .45-1 1 .45 1 1 1 1-.45 1-1zm51.39301-29.58179c1.10997-2.89252.62894-4.41821-1.39301-4.41821-1.42857 0-2 .66667-2 2.33333 0 3.67251 2.25263 5.05667 3.39301 2.08488zm3.59168-6.66821c-.0205-1.67296-1.74397-4.32406-2.39065-3.67737-.77481.77481.50836 4.92737 1.52259 4.92737.48585 0 .87648-.5625.86806-1.25zm4.81531-6.95c.66-.66 1.2-1.79537 1.2-2.52305 0-1.0134-.58511-.93968-2.5.31501-1.375.90093-2.5 2.03631-2.5 2.52305 0 1.28391 2.40003 1.08496 3.8-.31501zm5.1922-9.55c-.004-.4125-1.12929-1.27016-2.5-1.90591-2.8155-1.30587-3.43425.008-.7422 1.57581 2.10692 1.22717 3.25274 1.34383 3.2422.3301zm-3.81148-22.58913c-.87497-1.80865-1.04352-1.34588-1.03409 2.83913.0104 4.61236.0914 4.77989 1.04536 2.16087.71473-1.96232.71126-3.50648-.0113-5zm29.28448 4.23554c2.80593-2.46363 3.5348-3.83925 3.5348-6.67126 0-1.96222-.72958-4.37384-1.62128-5.35916-2.32023-2.56383-1.0859-5.08158 2.09932-4.28215 2.84494.71404 3.56097-1.47665 1.1395-3.48629-.76035-.63104-1.4078-2.98359-1.43878-5.22789-.031-2.2443-.26802-4.29226-.52678-4.55102-.76424-.76424-5.28649 8.91961-6.0393 12.93242-.50254 2.67877-.23776 4.3915.96197 6.22253 1.53466 2.34219 1.53593 2.7087.0173 5.02641-2.20476 3.36489-3.18709 3.15546-5.21171-1.11111-2.20613-4.64909-2.18994-11.22351.036-14.62074 1.05743-1.61385 1.49232-3.48082 1.09928-4.71919-.35765-1.12693-.21399-2.04896.31927-2.04896.53326 0 1.4692-1.43328 2.07988-3.18507 1.41813-4.06805 3.90595-6.81493 6.17222-6.81493 2.45449 0 5.91311 5.17372 5.91311 8.84535 0 4.79917 1.8034 4.64845 2.53222-.21163.64302-4.28801-.59469-8.63372-2.459-8.63372-.47102 0-1.13876-1.125-1.48386-2.5-.53784-2.14293-1.19606-2.5-4.60841-2.5-4.17243 0-7.98095 2.62461-7.98095 5.5 0 .825-.45 1.5-1 1.5s-1 1.35-1 3-.45 3-1 3-1 1.14083-1 2.53518-.72437 3.64071-1.60971 4.99191c-2.54909 3.8904-1.59163 15.9332 1.6277 20.47291 4.25793 6.0043 4.67356 6.08773 9.44721 1.89641zm-25.86103-12.62558c-1.01652-1.01651-1.85525.51389-1.02122 1.86338.63003 1.01942.86558 1.02021 1.2043.004.2316-.69479.14921-1.53513-.18308-1.86742zm-2.78839-17.54959c-.17368-1.22168-.76578-2.22124-1.31578-2.22124-1.23708 0-1.88591 4.05443-1.01183 6.32273.59536 1.545.72507 1.537 1.64486-.10149.5492-.97831.85643-2.77831.68275-4zm14.72534-6.78777c.92034-1.48915-.14673-2.29879-2.06137-1.56407-.88358.33906-1.32643 1.06965-.98412 1.62354.81058 1.31154 2.21511 1.28411 3.04549-.0595zm-18.54112-35.18347c0-1.17109-1.45675-.87974-1.875.375-.20625.61875.13125.95625.75.75.61875-.20625 1.125-.7125 1.125-1.125z"/>
        <path fill="#629902" d="M348.41361 679.76281c-4.30347-19.93571-2.30242-40.5133-2.81537-61.03743-2.51937-28.53756-10.91537-56.17095-12.35186-84.94231-10.27503-18.67368-9.54999-40.37683-12.83237-60.46484-5.20127-26.15554-6.09454-53.22828-13.98545-78.70121-2.19718-21.10489-7.98182-45.09022 1.95106-64.82628 8.7422-23.04403 27.85389-44.87054 53.91475-46.96608 20.53987-1.83956 46.24248 5.65176 58.34626 23.88325 7.57558 22.72417 18.253 45.8092 15.47948 70.58628 5.83568 17.4864 3.44571 41.64127-10.46883 54.49655-15.70159 17.6155-5.57543 40.41876-8.77007 60.29028-10.5816 21.57559-25.91376 39.95564-26.83246 64.89742-7.16535 26.84329 2.30166 54.20523.81578 81.4407-3.13023 12.07086-20.42459 16.95325-23.98697 30.18603-3.77345 4.7453-11.40611 17.44945-18.46395 11.15764zm20.20168-55.85985c8.56323-13.1351-8.54097-51.49969 6.81327-49.61222-17.81567-13.45084 1.45912-28.21481-.19332-46.5 5.53093-4.09562 10.52404-2.3965.64322-7.34358-10.31475-8.77436 3.84596-17.3166.0189-18.81781 1.80931-16.48913 1.52917-26.032 10.64852-32.83578 5.49729-10.10541 8.22509-16.52156 10.32142-23.60757 4.53294-4.65755-2.65254-23.56111 2.49404-33.43566-11.11153-6.34284 4.91047-23.61662-4.83332-33.54161-3.73302-12.10419 8.20905-18.6158-.42251-23.373-7.38472-9.67741-5.18758-32.16831-13.30805-41.62012-1.1874 10.30549-17.56902-8.17414-25.50875 2.57513-27.46935 2.08738-11.37385 34.22129-23.77949 49.1238 14.17657 17.25039 1.03088 38.23877 5.42285 57.8762 4.90481 15.07973-7.22874 33.9755 10.99978 40.13738 7.72713 9.34334-8.29734 30.04828 4.68991 33.48199 11.14509 4.21191 3.01261 22.05745 6.6575 31.3196-10.54944 4.2878.44797 30.39778 2.74768 43.71164-1.90722 18.26147 3.52462 36.27553.49424 54.84939-1.18022 11.84836 1.63567 4.51134 6.09414-2.38778h-.00003zm-15.10778-151.52889c.42738-4.34507.92376 3.7428 0 0zm-1.57895-11.58333c5.41308-3.77609 1.09145 4.08885 0 0zm3.5 158.58179c3.17499-8.4828-5.79807.42815 0 0zm-.41821-10.58179c4.40688-5.82751-12.26594 2.17873 0 0zm.75902-23.65167c-7.90157-9.94111.15357 24.4879 1.1731 3.35861l-1.1731-3.35861zm-5.90557-1.24355c-7.27197-1.52935-.43396-.58382 0 0zm25.16893-1.83395c-1.94699.72005 1.37818 4.68958 0 0zm-19.19559-7.66097c-1.99186-16.93316-2.47551 18.90317 0 0zm-3.40858-8.55084c-2.05282-5.24233-2.76698 3.47318 0 0zm22.28115-5.0919c6.75712-12.91314-7.72255.6688 0 0zm10.91885-10.16712c-4.61878-1.91095 1.95261 7.6106 0 0zm-33.2-1.8c-2.55494-3.58745-2.55494 3.58745 0 0zm-9.5-1c-3.07003-3.33131.0437 3.36259 0 0zm-1.04271-6.0691c-3.21898-2.74492-.2385 4.70603 0 0zm10.79271.65243c-3.11972-5.47045-2.6469 4.9769 0 0zm-11.25-7.14235c-2.68996-1.78064-1.91067 3.55948 0 0zm11-.44098c-2.55494-3.58745-2.55494 3.58745 0 0zm0-16c-1.33568-17.35389-3.35388 18.73508 0 0zm27-8.55902c-2.32648-6.94758-1.8204 8.06945 0 0zm9.65594-28.71001c-1.27182-2.51089.57454 14.03493 0 0zm-44.65594.76903c-4.0632-6.96943-1.39868 5.88189 0 0zm-6-4.38337c-10.27661-7.05327-12.92813 4.59615 0 0zm-10.60638-4.53326c-4.18879-3.19931.16474 7.55087 0 0zm-.73134-5.83337c-1.73475-.32333 1.04987 6.68188 0 0zm70.75593 1.64301c5.36549-5.24057-7.84655.53 0 0zm6.58179-6.39301c-3.36603-6.94357-2.97356 6.54681 0 0zm-79.83639-14.48539c-3.44225-23.15089-1.21432 17.30965 0 0zm.33639-14.51461c-3.07003-3.33131.0437 3.36259 0 0zm10.5-8.05902c-2.81914-3.57337-1.93934 5.29813 0 0zm70.8455-3.38901c-1.99614-5.19828-4.29996 7.30772 0 0zm-84.86081-3.80197c-3.51032-9.811-2.37633 14.44597 0 0zm10.01531-11.30902c-2.93822-5.28565-2.79149 6.96572 0 0zm-15-2.44098c-3.0814-9.67016-2.25883 9.43525 0 0zm11.64185-7.75c.0194-14.07272-5.81823 4.36761.17525 2.73569l-.17525-2.73569zm82.59388-2.75c2.60222-18.01639-10.79067 1.03643-.82217 4.27293l.82217-4.27293zm-94.75827-1.46353c-4.0802-17.68399-7.22431 3.1505 0 0zm13.1717-7.59897c-5.46483-14.49624-8.37342 3.21263 0 0zm91.35084-9.22774c-11.52643-5.96636-4.24699 9.27341 0 0zm-96.78333-3.39309c-5.33677-2.05677 1.80062 6.67546 0 0zm-13.03334-1.03334c-3.69296-12.49009.1179 6.69842 0 0zm100.25157 1.24142c8.90364-6.89713-16.25071 2.33026 0 0zm-4.04029-8.43881c-5.61597-6.09675.69155 11.08123 0 0zm-96.31058-10.1377c2.3524-24.92949-6.1286 3.85665-1.71987 10.25168.6208-3.41028.40854-6.98114 1.71987-10.25168zm13.91597.99274c-.61511-18.27815-4.09047 12.36727-.29375 4.73049l.29375-4.73049zm85.1875 4.87591c-5.77036-.63055 1.89686 1.76193 0 0zm-3.66107-9.87809c-2.39263-21.75024-5.55016-1.55531.15007 7.5612.43818-2.51161-.0138-5.05011-.15007-7.5612zm-9.71393-11.3763c-1.46856-4.07999-4.4039 6.22383 0 0zm-82.39595-1.70563c.65887-7.41551-5.16523 5.74285 0 0zm92.08345-5.35687c-3.07003-3.33131.0437 3.36259 0 0zm-88.5-2.5c-2.53031-5.20727-2.03781 5.01988 0 0zm102.66228-3.75c-1.73475-.32333 1.04987 6.68188 0 0zm-9.66228 1c-1.69402-3.11195-2.57784 4.28743 0 0zm-7-6.75c-2.55494-3.58745-2.55494 3.58745 0 0zm13.52392-6.92464c-8.12635-13.64916 1.2614 11.80065 0 0zm-20.52392-1.13438c-3.39727-7.23795-2.29165 8.481 0 0zm11 2.11804c-2.05282-5.24233-2.76698 3.47318 0 0zm-80-3.17705c-2.51051-2.45089-1.90045 5.38173 0 0zm3.86534-4.433c-1.55481-4.05232-3.92262 7.01 0 0zm83.13466 1.84319c-3.47551-8.60215-26.01068-17.54283-8.1384-5.78877 2.01272.95557 6.01723 8.16252 8.1384 5.78877zm-79.1875-5.22966c-1.46856-4.07999-4.4039 6.22383 0 0zm7.1875-6.0625c-3.68219-4.02435-3.83641 3.91193 0 0zm6.5-3c-2.52291-3.83489-4.28539 3.25207 0 0zm44-1c-6.54872-3.90713-1.0223 3.93734 0 0zm-30.5-3c-2.55494-3.58745-2.55494 3.58745 0 0zm19 0c-2.90938-3.81669-3.73364 4.00979 0 0z"/>
        <path fill="#1b3004" d="M348.43868 679.80965c-.6288-1.17492-.86479-3.40409-.52444-4.95371.34035-1.54962-.1295-7.03572-1.04412-12.19135-1.29157-7.28045-1.53194-12.74124-1.07632-24.45235.62877-16.16154-.65677-36.22987-2.54695-39.75997-.63657-1.18884-1.49256-5.08653-1.9022-8.66153-.40965-3.575-1.20988-8.3-1.77828-10.5-.56841-2.2-1.51453-7.6-2.10249-12-.58797-4.4-1.30792-9.125-1.59989-10.5-.29198-1.375-.90948-7.53579-1.37224-13.69063-.76367-10.15724-1.12864-11.6163-3.95228-15.80014-2.34331-3.47213-3.11091-5.72556-3.11091-9.13269 0-3.7693.29168-4.46711 1.75-4.18675 1.21282.23317 1.92029 1.60819 2.30477 4.47953.59982 4.47957 4.29881 9.28464 7.16955 9.3134.94838.01 2.39423-1.27819 3.21302-2.86154.81878-1.58335 2.14765-3.13168 2.95304-3.44074 2.14075-.82148 1.02098-15.0798-1.51559-19.29847-1.16681-1.94056-1.87479-5.00469-1.87479-8.114 0-4.657-.25808-5.17482-3.80375-7.63197-4.76877-3.30476-7.85281-3.34233-10.3824-.12647-2.33633 2.97015-3.81385 2.43653-3.81385-1.37742 0-1.51242-.66069-3.62336-1.4682-4.69098-.80751-1.06762-1.48251-4.10658-1.5-6.75323-.0175-2.64666-.66261-6.92166-1.4336-9.5-1.3075-4.37257-2.27527-11.28746-4.71478-33.6879-.53908-4.95-1.46196-10.35-2.05085-12-.5889-1.65-1.43938-6.03431-1.88997-9.7429-.45059-3.7086-1.522-7.74623-2.38093-8.97251-.85892-1.22628-1.56167-3.68252-1.56167-5.45831 0-1.77578-.675-5.8202-1.5-8.98759-1.08761-4.17561-1.5-11.17327-1.5-25.45273v-19.69385l5-9.79072c2.75-5.38489 5-10.36399 5-11.06466 0-4.30485 16.46178-22.98615 24.52125-27.82743 5.8071-3.48828 15.95441-7.40994 19.32484-7.46852 1.29035-.0224 4.80236-.75483 7.80446-1.62757 4.98457-1.44905 5.8026-1.44905 9.42414 0 2.18118.87274 5.20655 1.58679 6.72304 1.58679 1.51649 0 3.64489.6175 4.72976 1.37223 1.08488.75472 3.54751 1.71222 5.47251 2.12777 1.925.41555 4.38763 1.37305 5.47251 2.12777 1.08487.75473 2.75852 1.37223 3.7192 1.37223 5.36922 0 16.39605 8.90462 19.81323 16 1.19197 2.475 2.80349 5.69443 3.58114 7.15429.77766 1.45986 1.41392 4.30144 1.41392 6.31462 0 3.31501 1.76382 8.76497 5.51193 17.03109.74816 1.65 1.65507 4.575 2.01535 6.5.36029 1.925 1.30201 5.46641 2.09271 7.86981 1.03656 3.15071 1.35985 8.209 1.15882 18.13117-.24207 11.94798-.0482 14.01799 1.47119 15.70892 2.2885 2.54688 2.44277 15.79008.2182 18.73123-.80751 1.06762-1.47879 3.09262-1.49174 4.5-.0129 1.40738-.91504 5.91144-2.00466 10.00902-2.03422 7.64978-5.75085 13.04985-8.98164 13.04985-1.95457 0-5.48589 6.84528-6.44845 12.5-.37449 2.2-1.30835 5.88043-2.07525 8.17874-2.21443 6.63646-2.3326 17.70671-.21399 20.04774 2.2865 2.52656 2.43922 15.77493.21573 18.71465-.80751 1.06762-1.4682 2.6876-1.4682 3.59996 0 .91236-1.45274 3.63885-3.22831 6.05887-4.11252 5.60519-7.70015 12.79328-7.74042 15.50854-.0172 1.15967-2.22064 4.46508-4.89653 7.34535-4.54426 4.89133-4.9073 5.67591-5.50243 11.8915-.35044 3.66006-1.31108 8.86367-2.13474 11.56358-.82366 2.69991-1.49757 6.20976-1.49757 7.79966s-.69096 4.2269-1.53547 5.86001c-2.19872 4.25185-2.22746 33.1838-.0407 40.9314 1.12682 3.99221 1.55566 10.21072 1.56427 22.68335l.0119 17.18334-5.16474 5.31666c-2.8406 2.92416-6.52142 6.32428-8.1796 7.55582-1.65818 1.23155-4.18501 4.24274-5.61519 6.69153-4.80669 8.2302-13.41846 18.38863-16.04047 18.92133-1.375.27935-3.25299.79932-4.17331 1.1555-1.11805.4327-2.05268-.0613-2.81657-1.48862zm9.40809-3.6259c.86999-.33384 1.58179-1.40374 1.58179-2.37755 0-.97382.73648-2.3818 1.63663-3.12885.90014-.74706 2.45915-3.27716 3.46446-5.62245 1.00531-2.34529 2.25251-4.26416 2.77155-4.26416s2.22253-2.0242 3.78554-4.49821c1.563-2.47402 3.33812-4.49902 3.94472-4.5.60659-.00099 3.64409-3.0254 6.75-6.72093 5.40262-6.42826 5.6471-6.96357 5.6471-12.36514 0-6.83535-2.57862-10.91572-6.89827-10.91572-3.2466 0-5.8571 2.57173-9.64318 9.5-1.50279 2.75-3.5287 5.76586-4.50203 6.70192-.97332.93606-2.32418 3.41106-3.00191 5.5-.67772 2.08894-2.15212 5.10822-3.27645 6.7095-1.85126 2.63659-2.66135 5.49378-4.33898 15.30354-.3024 1.76823-1.17742 3.73583-1.9445 4.37244-1.44458 1.1989-1.89664 5.0773-.72801 6.24593.83002.83003 2.68339.8533 4.75154.0597zm4.35722-18.95091c-1.02622-1.02622.45266-4.4938 2.34948-5.50895 1.18617-.63482 1.87509-2.09281 1.87509-3.96833 0-1.71669.84296-3.70153 2.00239-4.71482 4.44649-3.88604 6.5503-6.53938 7.58614-9.56766.59869-1.75029 1.83619-3.32784 2.75-3.50566 1.29897-.25279 1.66147.45629 1.66147 3.25 0 1.96532-.3962 3.46082-.88044 3.32332-1.13526-.32236-8.11956 9.97241-8.11956 11.96814 0 .83443-1.74706 3.26421-3.88235 5.39951-4.01853 4.01853-4.40663 4.26004-5.34222 3.32445zm-9.20918-2.27626c-.2833-.91621.86773-4.14084 2.55784-7.16584 1.69012-3.025 4.4243-7.975 6.07597-11 1.65166-3.025 3.55503-6.175 4.2297-7 2.58776-3.16435 5.49625-9.0887 6.1359-12.4983.79331-4.22872 5.43434-7.64624 5.43434-4.0017 0 .825.48032 1.5 1.06739 1.5.62745 0 .79413-.86096.4044-2.08889-.47184-1.48663-.0588-2.51208 1.43261-3.5567 1.99463-1.3971 2.0956-2.32948 2.0956-19.3521 0-12.41913-.35209-18.10188-1.1522-18.59638-.83442-.51569-.98821.5023-.55761 3.69099.76988 5.70118-1.21987 25.43722-2.99617 29.71855-.90149 2.17281-1.94611 3.2056-3.03101 2.99667-1.27131-.24484-1.95534-2.39625-2.94791-9.27178-1.82974-12.67455-2.3074-22.42708-1.13396-23.15231 1.862-1.15078 3.25273 1.63716 3.05725 6.12871-.15368 3.53114.14598 4.48324 1.41105 4.48324 1.31604 0 1.48966-.72862.96118-4.03362-.38133-2.38465-.17754-4.90709.4985-6.17027.98388-1.83841.7769-2.4037-1.48281-4.04979-1.44447-1.05222-2.62631-2.74496-2.62631-3.76163 0-1.01668-1.35-2.80979-3-3.98469-3.4311-2.44316-3.89158-5.45247-1.06574-6.96482 2.60636-1.39488 3.10661-1.30526 2.43813.43678-.83749 2.18246 1.86899 7.62357 3.62761 7.29294.83069-.15617 1.65054-1.60211 1.83737-3.24049.18555-1.62717 1.08555-3.48153 2-4.12078 1.31431-.91879 1.59165-2.44455 1.32381-7.28296-.39073-7.05835-2.16118-8.3603-2.16118-1.58929 0 4.74699-2.29261 7.196-4.08561 4.36434-1.37535-2.17207-1.06926-8.22959.5313-10.51472 2.45052-3.49861 3.99221-11.14844 2.5878-12.84064-.66312-.79901-.91537-1.92246-.56056-2.49656.73542-1.18994 4.50649-1.43255 4.56678-.2938.39221 7.40837 1.09562 11.70813 2.11661 12.93835.80769.97321 1.17809 4.08021 1.03293 8.66447-.12447 3.93095.22513 7.82218.7769 8.64718.55178.825 1.02798 1.275 1.05823 1 .0303-.275.73334-3.875 1.56241-8 .82907-4.125 2.01057-10.01916 2.62557-13.09814 1.13146-5.66469.702-8.90186-1.18098-8.90186-.56726 0-1.03138 1.77344-1.03138 3.94098 0 4.55726-1.49258 5.99501-3.81384 3.67375-1.34975-1.34975-1.42751-2.13696-.46339-4.69121.63719-1.68811.99782-3.59899.8014-4.2464-.19642-.64742-.63825-2.45433-.98185-4.01537-.51473-2.33855-.87931-2.62696-2.07079-1.63812-1.84468 1.53094-4.47153.5537-4.47153-1.6635 0-.93646-.66966-2.44261-1.48812-3.34701-2.24272-2.47818-2.85898-7.21238-1.22568-9.4159 2.29966-3.10249 3.90653-1.06524 3.14823 3.99145-.54694 3.64729-.38535 4.41133.93297 4.41133 3.17632 0 3.35853-11.02043.22012-13.31346-2.55043-1.86343-1.41732-4.94338 1.65801-4.50668 1.5674.22257 2.59922 1.3868 3.3857 3.82014 1.17439 3.63354 2.94583 3.97203 2.76557.52845-.0568-1.08435.95573-2.80451 2.25-3.82258 2.13835-1.68203 2.3532-2.62046 2.3532-10.27845 0-4.63508-.41968-8.42742-.93261-8.42742-1.17503 0-1.73563 2.02206-2.55164 9.20361-.51523 4.53451-1.06509 5.83597-2.68257 6.34934-1.11898.35515-2.49019.19004-3.04715-.36692-1.9734-1.9734.70846-14.2307 4.12459-18.85127 1.20308-1.62725 2.37675-4.45466 2.60816-6.28312.2314-1.82847.6453-3.54905.91977-3.82352.86972-.86973 5.56145 2.75355 5.56145 4.29493 0 1.81832 1.91609 1.85659 4.25.0849 2.31356-1.75624 2.22722-3.60795-.16821-3.60795-3.47795 0-4.97058-1.13301-6.13309-4.65543-.63141-1.91322-.89739-3.72921-.59105-4.03555.30634-.30634 2.26369.12254 4.34966.95307 2.88509 1.14868 3.91388 2.19539 4.29912 4.37398.57066 3.22716 4.31573 4.57274 5.33491 1.9168.96494-2.5146-.29617-4.39952-4.53897-6.7841-3.61033-2.02912-3.93852-2.54234-3.47042-5.42691.35759-2.20355.0778-3.35439-.90748-3.73247-.78346-.30064-1.42447-1.02658-1.42447-1.61319 0-.73167.5867-.75257 1.86852-.0666 1.02768.55 2.15268.71584 2.5.36852 1.17096-1.17097.6429-5.04378-.85751-6.28901-1.91336-1.58792-1.02483-3.00911 1.88134-3.00911 3.57319 0 3.5678-.79212-.0321-4.72232-2.84036-3.10093-3.36025-4.41339-3.36025-8.48288 0-3.57689.51408-5.25454 2-6.52683 1.34728-1.15358 2-2.94994 2-5.50424 0-4.68046 3.37155-10.08804 7.18789-11.52855 2.43148-.91778 2.81211-1.5981 2.81211-5.02619 0-2.18061.675-5.58024 1.5-7.55475 1.81264-4.33827 1.89947-5.45371.3-3.85424-.66.66-2.685 1.2-4.5 1.2-2.57029 0-3.3-.41828-3.3-1.89159 0-1.19183.93996-2.12751 2.5409-2.52932 2.43783-.61186 2.5547-2.786.13369-2.48713-2.72203.33604-3.67459-.20626-3.67459-2.09196 0-3.33438 5.71172-2.67175 9.61969 1.11601 3.14981 3.05292 3.25471 3.07822 5.18112 1.25 2.36624-2.24565 3.56629-7.29184 2.22734-9.36601-.76541-1.1857-1.10285-.83241-1.61044 1.68607-1.08084 5.36273-4.96209 5.23098-5.57748-.18932-.29704-2.6163-.68935-2.95593-3.09023-2.67518-2.35125.27493-2.75-.0403-2.75-2.17395 0-1.54201 1.05073-3.30513 2.75-4.61448 1.5125-1.16544 3.875-2.97148 5.25-4.01341 2.01403-1.52617 2.29172-2.23522 1.42856-3.64756-1.74213-2.85053-3.13236-2.6606-4.26287.58239-.70421 2.02008-1.73267 3.04544-3.05465 3.04544-2.73689 0-3.0294-.74117-3.5789-9.0685-.2642-4.00385-.94202-7.74138-1.50626-8.30562-1.56657-1.56657-1.22129-4.62588.52209-4.62588 1.94861 0 6.37833 4.94564 6.42043 7.16821.0978 5.16154 3.0316 5.9105 3.0316.77392 0-2.07619-1.1751-4.1507-4-7.06157-4.25489-4.38437-4.96584-6.5727-2.44912-7.53846 1.76861-.67868 6.09289 2.96015 7.03127 5.91673.44041 1.38762.92418 1.63484 1.69356.86546.76938-.76938.59818-1.60616-.59934-2.9294-.922-1.0188-1.67637-2.27943-1.67637-2.80139s-.86761-1.69189-1.92802-2.59984c-1.0983-.94039-2.22601-3.63799-2.62047-6.26843-.79512-5.30226-1.613-5.26126-1.93832.0972-.36004 5.93016-5.08174 8.16705-9.56916 4.53336-3.28241-2.65793-2.03356-5.32367 2.10616-4.49572 2.8604.57208 3.09753.42231 2.78805-1.76096-.24959-1.76079-1.12454-2.52094-3.33824-2.90021-2.44564-.41902-3.09239-1.09877-3.5-3.67855-.54827-3.47007-3.94597-6.63585-8.25-7.68688-3.43394-.83856-3.58475-3.38583-.25-4.2228 3.01785-.75743 3.19534-1.96814.5-3.41064-3.00164-1.60643-2.41084-3.00514 1.25-2.95936 2.11294.0264 4.46131 1.07602 6.71223 3 1.90422 1.62765 3.99723 2.95936 4.65113 2.95936 1.80629 0 10.38664 9.09512 10.38664 11.00977 0 .92414.9 2.49474 2 3.49023 1.1.99549 2 2.61367 2 3.59597s.48175 2.08374 1.07056 2.44764c.64513.39871.8204 2.14231.44105 4.38765-.46536 2.75446-.21671 4.0686.95361 5.03988 2.21873 1.84138 2.99299.62192 2.70714-4.26374-.49963-8.53961-6.62188-21.82066-11.7025-25.38634-1.42712-1.00158-3.86912-2.83356-5.42667-4.07106-1.55754-1.2375-3.75708-2.25-4.88786-2.25-1.13077 0-2.43106-.67028-2.88952-1.48951-.46257-.82656-3.03955-1.79187-5.78998-2.16886-2.72602-.37364-5.5063-1.22924-6.1784-1.90134-3.38807-3.38808-28.0327-2.45778-32.37617 1.22215-.86831.73566-3.01993 1.33756-4.78138 1.33756-1.92431 0-3.4324.59873-3.77825 1.5-.31659.825-1.42365 1.5-2.46014 1.5-1.0365 0-2.4466.9-3.13356 2s-1.72445 2-2.30553 2c-2.63847 0-18.4624 19.80403-18.4624 23.10614 0 .90694-.675 2.20917-1.5 2.89386-.825.68469-1.5 2.13131-1.5 3.21472 0 1.0834-.9 3.11399-2 4.51241-1.1 1.39842-2 3.3268-2 4.28528 0 .95849-.63223 2.26741-1.40496 2.90871-2.92762 2.42971-1.95051 38.66507 1.3467 49.94145.54077 1.84941.94681 3.64941.90232 4-.0445.35058-.0133 1.76243.0693 3.13743.13802 2.29694.25812 2.35786 1.47866.75 1.69-2.22629 3.52591-2.22629 5.21591 0 1.19053 1.56833 1.33174 1.40676 1.36024-1.55637.0229-2.38563-.77442-4.05648-2.86333-6-1.92876-1.79452-3.13018-4.13482-3.59932-7.01128-.62788-3.8497-.47668-4.37714 1.39513-4.86663 2.0262-.52986 3.03284-3.31572 1.19811-3.31572-.49568 0-1.88224-1.66269-3.08126-3.69487-2.4424-4.13957-2.40041-7.09846.32363-22.80513.85849-4.95 1.58293-9.16128 1.60987-9.35841.0269-.19712 1.17398-.076 2.54898.26905 2.22523.5585 2.5.31665 2.5-2.20046 0-3.40241 2.24808-6.79293 3.8483-5.80394 1.61884 1.0005 1.43219 6.67821-.36061 10.96899-2.18247 5.22338-2.64539 15.79054-.9382 21.41626.78588 2.58968 1.43373 4.82101 1.43969 4.95851.006.1375-1.11418.25-2.48918.25-2.47316 0-3.35235 1.35518-1.58701 2.44622.50214.31034 1.23138 2.44884 1.62053 4.75221.60709 3.59329.3957 4.44046-1.4887 5.96636l-2.19625 1.77842 3.57571 3.68179c3.34236 3.44152 3.57572 4.09805 3.57572 10.05979 0 4.74682.38362 6.52519 1.5 6.95358 2.2515.86398 1.88307 5.02819-.5 5.65138-3.02343.79064-2.39554 2.71025.8865 2.71025 2.48946 0 2.95385.44704 3.37615 3.25.26931 1.7875.0954 3.4-.3865 3.58333-1.42964.54391-.99694 3.18309.62385 3.80504.825.31659 1.5 1.42746 1.5 2.46862 0 2.68381-4.6429 2.59349-5.5-.10699-.34913-1.1-1.10694-2-1.68402-2s-.80651-.92821-.50983-2.0627c.68382-2.61497-1.63376-8.23296-4.49662-10.90012-1.66611-1.55222-2.14265-3.01842-1.96417-6.04331.20243-3.43063-.0521-3.99387-1.80485-3.99387-1.66888 0-2.04051.64329-2.04051 3.53212 0 1.94266.71448 5.20516 1.58774 7.25.87326 2.04483 2.22176 7.54288 2.99666 12.21788.7749 4.675 1.65154 9.85 1.9481 11.5.29656 1.65.87742 8.175 1.2908 14.5.41339 6.325 1.30501 12.49742 1.9814 13.71648.67638 1.21906 1.28218 4.54171 1.3462 7.38366.15359 6.81703 2.17705 8.89986 8.64615 8.89986 4.24799 0 5.22747.44079 8.55749 3.85104 3.2135 3.29092 3.98529 4.99989 5.30641 11.75 2.44923 12.51394 2.86791 24.94287.93938 27.88617-.88018 1.34334-1.60033 3.13326-1.60033 3.97761 0 1.72688 1.55743 2.06029 2.5.53518 1.33282-2.15655 2.7205-.95152 2.01524 1.75-.85408 3.27161-1.49029 9.94651-1.57099 16.48226-.0399 3.23305-.56042 5.01319-1.64296 5.61901-1.16331.65101-1.39969 1.65261-.88921 3.76774.38242 1.58454.69494 3.724.69448 4.75434-.00047 1.03034.90489 3.80021 2.01189 6.15526 1.107 2.35505 1.91225 4.88704 1.78942 5.62665-.12282.73961.11072 2.10595.51898 3.03633 1.10336 2.51439.28448 5.24032-1.68833 5.62025-1.28054.24661-1.73852-.32999-1.73852-2.18883 0-1.38799-.7875-2.97103-1.75-3.51784-1.45215-.825-1.54487-1.32954-.54478-2.96441.96978-1.58534.92095-2.20613-.25-3.17793-.80037-.66424-1.45522-1.82762-1.45522-2.58527 0-.75766-.45-1.37756-1-1.37756-1.54712 0-1.18068 8.32331.54866 12.46221.85176 2.03855 1.70184 6.25601 1.88907 9.37213.45434 7.56166.4083 7.37885 1.66301 6.6034.60632-.37473.85524-1.90784.55417-3.41319-.60622-3.03108.84504-5.15367 2.96695-4.33942.96861.3717 1.37814 2.39681 1.37814 6.81487 0 4.66508.3868 6.43445 1.5 6.86163 2.01847.77456 2.0353 6.63837.019 6.63837-.81452 0-1.76331-1.125-2.10841-2.5-1.15293-4.59365-2.41064-2.57044-2.41064 3.87788 0 3.50783.66121 7.96038 1.46936 9.89455 1.5277 3.65629 1.53494 17.22329.0143 26.8996-.86006 5.47303.19951 14.14178 1.62114 13.26317.53708-.33193.74471-1.35314.4614-2.26936zm-1.20206-41.65915c-.34636-.90262-.15025-2.12063.43581-2.70669 1.52361-1.52361 4.41041-.13109 4.01242 1.93549-.4433 2.30188-3.64766 2.85743-4.44823.7712zm-24.78638-178.05268c-.82065-3.26976-.0437-4.45401 2.92219-4.45401 3.25288 0 3.98457 1.61151 2.06314 4.54398-2.07662 3.16933-4.17681 3.13143-4.98533-.09zm71.08886-32.12068c-.36667-.36666-.66667-2.67756-.66667-5.13533 0-3.5358.54654-4.97517 2.61807-6.89501 4.14854-3.84473 7.30085-1.22228 3.91373 3.25588-.8075 1.06762-1.4825 3.35549-1.5 5.08414-.0194 1.92131-.64665 3.37895-1.61359 3.75-1.95858.75158-1.93988.75199-2.75154-.0597zm-.66667-39.83333c0-2 .5-2.5 2.5-2.5s2.5.5 2.5 2.5-.5 2.5-2.5 2.5-2.5-.5-2.5-2.5zm-2.4851-6.47589c-.93909-1.51949 2.29766-5.02411 4.64009-5.02411 1.30134 0 1.84501.73667 1.84501 2.5 0 1.375-.3375 2.50615-.75 2.51365-.4125.008-1.71171.27172-2.88714.58712-1.17543.31541-2.45701.0559-2.84796-.57666zm-3.78134-7.62388c-1.00029-1.00029 1.42473-5.27392 3.92057-6.90926 2.93724-1.92456 3.16189-5.49097.34587-5.49097-2.4756 0-2.82227-4.47049-.41821-5.39301 2.72095-1.04413 3.41821-.68296 3.41821 1.77057 0 1.30765.675 2.93775 1.5 3.62244 2.56255 2.12673 1.79301 6.32367-1.79761 9.80383-3.11259 3.01684-5.61577 3.94946-6.96883 2.5964zm-4.73356 265.65879c0-1.06754-.40285-2.18996-.89522-2.49426-1.0746-.66414-2.34765 2.23325-1.54901 3.52548.98523 1.59413 2.44423.97857 2.44423-1.03122zm-3.2839-53.67626c-1.08518-1.08517-2.7161.72198-2.7161 3.00959 0 3.65122 1.42192 4.05337 2.39957.67865.49476-1.70786.63719-3.36757.31653-3.68824zm-38.84357-15.26257c-.0949-1.9911-.78012-4.61686-1.52259-5.83501-.74247-1.21815-1.34994-3.13065-1.34994-4.25 0-1.1716-.65773-2.03518-1.55007-2.03518-1.28634 0-1.46779 1.0634-1.06648 6.25.26597 3.4375.5135 7.72287.55007 9.52305.0663 3.26626.0717 3.26963 2.58906 1.6202 2.00219-1.31189 2.48697-2.39969 2.34995-5.27306zm.93997-15.05769c.25-.75-.125-1.125-.875-.875-.72188.24063-1.50938 1.02812-1.75 1.75-.25.75.125 1.125.875.875.72188-.24063 1.50938-1.02813 1.75-1.75zm45.17219-9.3125c.008-.4125-.43469-.75-.98469-.75-.55 0-.99311 1.0125-.98469 2.25.0124 1.81944.20082 1.96296.98469.75.53316-.825.97627-1.8375.98469-2.25zm7.68026-2.62469c1.35568-1.13226 2.42427-3.53749 2.85871-6.43451.38157-2.5445 1.31984-5.14596 2.08505-5.78102.76521-.63507 1.39129-1.68373 1.39129-2.33036 0-.64663 1.56071-2.72903 3.46825-4.62756 2.00942-1.99992 3.4816-4.4703 3.5-5.87312.0175-1.33169.81925-3.29143 1.78175-4.35498 1.24157-1.37192 1.77426-3.71904 1.8335-8.07874.0781-5.74748-.13906-6.35744-3.35674-9.42853-3.86831-3.69209-5.73902-3.60492-10.64334.49595-4.53672 3.7935-6.58342 8.4973-6.58342 15.1303 0 3.58694-.67294 7.16667-1.73955 9.25362-1.13212 2.21514-1.86363 6.416-2.0949 12.03047-.33315 8.08781-.21056 8.72824 1.96206 10.25 2.8346 1.98543 2.86039 1.98426 5.53734-.25152zm-2.97745-9.77114c-1.22166-1.22167-.73447-3.479 1.3125-6.0813 1.61332-2.05101 2-4.05678 2-10.3744 0-7.65368.0816-7.91339 3.5875-11.4193 4.13626-4.13627 5.52512-4.06888 6.7865.32928 1.20665 4.20735-.49704 6.31694-4.46122 5.52411-3.25221-.65045-3.37828-.21388-2.9562 10.23669.27071 6.70258-3.76497 14.28903-6.26908 11.78492zm15.3125-48.35417c0-1.1-.42344-2-.94098-2-1.34235 0-2.28822 1.82013-1.55902 3 1.04512 1.69104 2.5 1.10908 2.5-1zm-1.90226-7.125c-1.12406-3.8423-.42613-11.85465 1.18797-13.63822 2.11421-2.33617 2.21034-4.23678.21429-4.23678-.825 0-1.5.6199-1.5 1.37756 0 .75765-.62453 1.89587-1.38785 2.52936-1.36034 1.12898-2.1206 13.46138-.94693 15.36042.81533 1.31923 2.88005.13742 2.43252-1.39234zm5.26389-8.375c-.31659-.825-.75246-1.5-.96862-1.5-.21615 0-.39301.675-.39301 1.5s.43588 1.5.96862 1.5c.53273 0 .70959-.675.39301-1.5zm-6.36163-12.5c0-.55-.45-1-1-1s-1 .45-1 1 .45 1 1 1 1-.45 1-1zm8 0c0-.55-.45-1-1-1s-1 .45-1 1 .45 1 1 1 1-.45 1-1zm-7.17582-5.65911c2.94412 2.66439 3.91813.0782 1.10023-2.92135-1.80854-1.9251-2.29966-3.63031-2.35477-8.17598-.0421-3.47464-.46468-5.54604-1.06964-5.24356-.55.275-.86106 1.71996-.69125 3.21103.17302 1.51923-.55128 3.93709-1.64761 5.5-1.44471 2.05957-1.81898 3.81063-1.43107 6.69544l.52528 3.90647 1.79578-2.38073c1.73472-2.29976 1.86303-2.31987 3.77305-.59132zm15.79096.4326c1.58667-1.22458 3.43305-2.91208 4.10306-3.75 1.71987-2.15089 1.581-8.53029-.2182-10.02349-2.51955-2.09104-1.88576-4.31364 1.02196-3.58384 3.14648.78971 4.4297-1.7071 2.16403-4.21065-.85612-.946-1.6982-3.93156-1.87128-6.63458-.39535-6.17394-2.34284-7.03702-3.78592-1.67783-.59573 2.21235-1.52091 4.29301-2.05596 4.62369-.53506.33069-.97283 1.66754-.97283 2.9708 0 1.30325-.675 3.04455-1.5 3.86955-1.92794 1.92794-1.89684 2.27681.50345 5.64771 2.08254 2.92466 1.78305 5.99515-.58476 5.99515-1.76426 0-4.41869-5.13575-4.41869-8.54921 0-1.45669.62615-4.06654 1.39145-5.79966.7653-1.73312 1.95473-5.30984 2.64316-7.94827 1.46191-5.60273 4.37044-9.70286 6.88298-9.70286 2.99667 0 5.50529 3.75336 5.54551 8.29711.0279 3.15564.46218 4.25142 1.7869 4.50912 1.52286.29623 1.75-.50772 1.75-6.19395 0-5.02996-.4236-6.94624-1.8399-8.32332-1.01194-.98393-2.12281-2.57646-2.46861-3.53896-.9568-2.66318-8.38547-2.38612-11.37704.42431-1.27295 1.19588-2.31445 2.71578-2.31445 3.37756 0 .66178-.675 1.76344-1.5 2.44813-.84773.70355-1.5 2.88355-1.5 5.01324 0 2.07259-.89012 5.72999-1.97804 8.12756-3.32637 7.33066-2.45121 14.93983 2.65789 23.1092 2.71548 4.34201 3.97104 4.58307 7.93529 1.52349zm-108.01767-64.24117c-.36086-1.43776-1.09291-2.34415-1.62679-2.0142-1.10957.68575-1.31261 4.80662-.28735 5.83188 1.30335 1.30335 2.56692-1.2168 1.91414-3.81768zm114.53242-6.91455c-.22625-.48522-1.03953.97605-1.80727 3.24727-1.14696 3.39303-1.16645 4.53125-.10927 6.38223 1.18997 2.08345 1.32577 1.83943 1.80727-3.24727.28635-3.025.33551-5.897.10927-6.38223zm-2.12989-9.55875c0-2.16754-.45-4.2191-1-4.55902-.61081-.3775-1 1.15628-1 3.94098 0 2.50746.45 4.55902 1 4.55902s1-1.77344 1-3.94098zm-7.60059-2.39281c.44651-1.85868.32286-2.6126-.35933-2.19098-.57204.35354-1.04008 1.81625-1.04008 3.25045 0 3.13458.47899 2.77194 1.39941-1.05947zm4.20832-10.09299c-.35521-1.41527-1.08726-2.57322-1.62678-2.57322-1.10498 0-1.35313 5.29449-.29762 6.35 1.29405 1.29405 2.56906-1.20826 1.9244-3.77678zm-17.38316-19.13112c.30685-.30685.32936-1.43185.05-2.5-.74408-2.8455-3.27457-2.41437-3.27457.5579 0 2.2773 1.80328 3.36338 3.22457 1.9421zm-4.6204-9.17127c-.3323-.33229-.56864.25834-.52522 1.3125.048 1.16495.28494 1.4019.60416.60417.28887-.72187.25335-1.58438-.0789-1.91667zm-65.36199 208.74535c-.6832-1.09397-1.24218-2.61839-1.24218-3.3876 0-.76921-1.09225-2.11423-2.42722-2.98894-1.33497-.8747-2.57247-2.61396-2.75-3.86501-.17753-1.25104-.99778-2.27463-1.82278-2.27463-1.10744 0-1.5798 1.39406-1.80492 5.32686-.25839 4.51392-.52546 5.14383-1.75 4.12756-.7948-.65962-1.44508-2.87269-1.44508-4.91793 0-2.04525-.65408-5.89197-1.45351-8.54827-.79943-2.65631-1.22287-5.20283-.94098-5.65893.8712-1.40965 2.39449-.9149 2.39449.7777 0 1.05452.5438 1.39831 1.58179 1 .86998-.33385 1.97745-.60699 2.46104-.60699.48359 0 1.75758-.94277 2.83109-2.09504 2.59741-2.788 6.12608-1.78466 6.12608 1.74188 0 2.27095-.28796 2.44882-3 1.85316-5.67424-1.24627-3.5061 3.41485 5.02591 10.80482 1.60653 1.39149 2.01392 2.74777 1.77891 5.92228-.34435 4.65142-1.72472 5.73206-3.56264 2.78908z"/>
      </g>
      <path fill="#081403" stroke="#d7e2e5" stroke-opacity=".20855324" stroke-width=".71428573" d="M611.8125 273.5c-15.57467 2.26591-31.84537 7.15641-42.40625 19.59375C562.44672 300.23249 556.44481 308.32583 553 317.75c-2.23106 5.60162-6.27135 10.7778-7.4375 16.59375.87443 18.80453-.0502 38.04122 4.65625 56.40625 4.26928 12.93768 5.60555 26.71805 7.71875 40.15625 1.47946 13.0147 3.83274 25.94577 6.0625 38.8125.0343.0729.0617.14415.0937.21875-.10115 1.43661-.1025 3.32726.0312 5.65625.70169 13.03366 3.01515 26.43797 6.78125 38.84375 3.22203 6.01957 6.06627 12.31723 6.09375 19.3125 1.99127 21.53197 5.95409 42.83579 10.1875 64 2.56586 22.12425.009 44.54019 3.40625 66.59375.6573 2.6112-1.25531 9.06898 3.28125 8.5625 8.82197-1.364 12.98228-10.63201 18.03125-16.9375 5.59309-8.70044 13.7791-15.24266 21.15625-22.34375-.4307-15.79436-.38-31.67965-2.875-47.3125-.38513-13.50961-1.5303-27.37448 2.59375-40.46875 2.35581-8.07661 2.51468-16.69452 5.21875-24.625 3.89313-6.1542 8.73398-11.78582 11.03125-18.84375 4.14218-8.49523 10.66648-16.19578 11.625-25.875.24392-5.2092-.77751-10.30191-2.75-15.03125-.94589-11.68855 2.31057-23.49276 6.71875-34.21875 1.59348-4.2905 7.22135-4.23203 8.71875-8.71875 4.24821-8.06102 4.96508-17.38307 7.78125-25.9375 1.30079-6.93312-.88965-13.63617-2.3125-20.28125-.96762-13.34987.55724-27.14513-4.65625-39.84375-2.98586-8.11628-5.89629-16.27632-7.53125-24.78125-4.07192-12.94974-14.8884-23.56332-28.21875-26.65625-8.61396-3.11867-17.4814-6.56168-26.59375-7.53125zm4.40625 5.4375c6.87673-.15182 13.04348 3.07234 19.59375 4.71875 5.42153 2.55332 11.31408 4.1396 15.53125 8.75 8.12251 6.83039 11.87735 17.69163 12.9375 27.96875.85766 2.78641-3.25649 3.92406-3.84375 1.125-.36423-5.56222-.95774-11.42005-4.71875-15.90625-4.52957-8.84086-13.23778-15.3253-22.5-18.53125-1.44511-.82972-4.18361.79588-1.9375 1.96875 2.45505.65198 3.04746 3.83292.15625 4.25-2.21075.46253-2.88898 2.72726-.3125 3.4375 4.20163 1.7985 7.80991 4.59695 9.3125 9.09375 1.14561 3.21598 7.93244 3.40809 6.3125 7.59375-1.8513 1.10146-6.2377-1.30954-6.71875 1.8125 1.75741 4.60907 9.09228 5.89399 10.5625.375.98493-1.43556.1779-5.50816 1.78125-5.75 1.56193 6.10719 5.03578 11.39026 8.0625 16.84375-.15131 2.71029-2.70152.52173-2.96875-1.03125-1.54602-1.49574-4.91054-6.09073-7.125-3.5.65834 5.86866 10.21811 9.93544 6.5625 16.375-2.63229.00044-1.73393-4.43187-3.46875-5.875-1.12977-1.716-4.06948-5.86814-6.15625-3.65625 1.46375 5.8595 2.33053 11.96653 3.1875 18 .0163 3.59136 4.78585 2.78536 5.25-.21875.33032-2.79563 2.99325-3.44182 4.40625-.9375 2.05213 2.53882-2.8438 4.40594-3.9375 6.21875-1.70359 1.98528-6.59589 4.84218-4.46875 7.78125 2.43356.57082 5.2308 1.19847 5.40625 4.34375.35534 3.17598 4.08745 3.44185 4.625.15625.049-1.34163 2.22623-4.27753 2.4375-1.46875.39939 3.31375-.93311 8.30855-4.25 9.4375-3.80083-1.51443-7.9497-7.10622-12.3125-4.375-2.18247 3.69541 4.61664 1.4774 4.21875 4.34375-1.20831 1.31496-5.20767 2.68181-3.1875 4.90625 2.58023.9649 5.90964-.93675 8.0625-.65625-1.49997 4.50066-2.36522 9.19184-3.0625 13.84375-2.06283 3.54722-7.05539 4.62133-8.1875 9.03125-1.3996 4.61084-2.452 9.33163-4.9375 13.5-2.1886 5.97218 2.34266 10.96659 5.0625 15.6875.0715 2.33596-5.54974.30279-4.46875 3.25 1.09227 1.80514 3.06731 5.73716.875 7.09375-3.67357-.73411-4.51379-.67123-2.03125 2.34375.94043 2.27186-.83281 5.28783 2.125 6.75 2.19668 2.34898 8.43636 5.18857 5.84375 9.0625-3.33041 1.63656-4.98184-2.06662-5.96875-4.46875-1.83844-1.64707-4.94326-4.01913-7.40625-3.28125-.6722 4.565 3.09992 8.41488 7.53125 8.71875 2.36748 1.50695-1.85034 4.38529-3.5625 4.4375-2.5606-.89287-3.09479-4.67249-6.1875-5.1875-2.1015.27384-1.81135 5.95878-3.6875 8.15625-3.02572 6.01554-6.30191 12.98405-4.96875 19.8125 2.16018 2.4626 5.37355-.80574 5.03125-3.40625 1.06046-3.56397.57229-8.55076 3.09375-11.25 1.65366 5.00579 1.26518 10.93405.5625 16.1875-1.84116 2.58192-3.33535 5.56359-4.8125 8.25-2.81442-.97058-2.87649-7.08124-7.125-5.875-3.02298 1.9392 1.53629 5.18924 1.6875 7.59375.6654 2.96951 1.29966 8.93084-2.375 9.8125-1.37521-2.75531.56377-7.15485-1.59375-9.40625-4.9047 3.18516-1.11299 9.87083.84375 13.78125.69273 3.47009 3.9712 1.12075 5.875 2.125 2.61866 4.01908.39593 8.69765.65625 12.90625.70544 2.02484 3.6856 2.90927 3.78125.0625.95613-1.5108-.25402-6.15305 2.0625-6.09375 3.35461 4.1191-.10216 9.91544-.3125 14.59375-1.22494 4.74414-1.59329 10.31203-3.75 14.5-2.52856-3.97691-.8798-9.63003-1.84375-14.1875-1.26874-5.28765-2.11757-10.67548-3.15625-16-1.20474-2.29383-4.23758.0274-3.34375 2.1875.50331 5.30792-.86278 10.29992-3.09375 15.03125-.4929 2.68031-1.9006 8.46828 1.78125 9.25 2.84038-2.14376 1.35215-6.8151 3-9.1875 2.17821 3.56775 2.05927 9.14143.15625 12.9375-2.2726 1.74994-1.04255 7.23579-4.5 7.1875-2.87398-1.44396-3.49131-5.42025-3.21875-7.9375-3.33645-.42583-5.01642 3.68921-2.4375 5.84375 3.26877 3.2676 5.68043 7.35414 8.15625 11.15625.0127 3.93641.58359 8.82701-1.34375 12.21875-3.4944-2.06354.0485-8.49484-3.59375-10.5-2.23578 2.56969-.41271 7.08805-.75 10.3125.83819 7.1954.47061 15.18212 3.90625 21.6875 2.72252.0705 3.13886-4.48442 3.84375-6.46875 2.17182-9.62063 1.05545-19.80395 2.78125-29.34375 2.10225 5.50688.92151 12.12405 1.28125 18.03125-.73523 7.24777 1.51115 15.51795-3.03125 21.8125-.55937.79153-.33993 5.20043-1.875 3.125.10848-3.53642-4.143-1.14665-4.375 1.03125-5.17542 13.86566-15.56176 25.30566-19.90625 39.46875.61734 1.93737-1.72516 3.26336-2.125.84375-1.61867-14.06863 2.61156-28.44-1.09375-42.34375-.0701-3.89655-1.58945-8.81022.3125-12.25 1.79063.42893 2.05605 5.38912 4.15625 4.09375 2.12562-3.84227-2.48884-7.21907-2.0625-11.21875-1.03486-2.25593.49443-7.29083-2.65625-7.90625-2.81542.9135-.42299 6.279-2.875 7.15625-1.79907-5.94516-1.86039-12.50111-3.75-18.53125-.18546-3.00649-1.71286-7.25483.15625-9.75 1.38658 1.42439 2.83289 3.51218 3.28125 5.53125-1.01006 2.16238-1.00185 4.40132 1.0625 5.875.81555 1.48439 1.50238 6.42402 3.59375 2.90625 2.07764-9.87866-7.7839-19.41989-3.0625-29.125 1.32992-7.51037 1.82907-15.22694 2.625-22.78125-1.29893.11342-4.55941 2.62967-4.34375-.34375 3.93551-9.9877 1.70928-21.25844.28125-31.59375-.80278-7.45861-6.09543-16.01801-14.5-15.59375-4.39496.23576-8.36928-3.37733-7.75-7.90625-4.19162-21.20781-4.42026-43.09309-10.5625-63.9375-.97085-2.24381-1.31262-9.0573 2.78125-6.6875 1.12529 4.07447 1.05962 8.75674 4.40625 11.96875 3.42689 4.34613 1.58891 11.27883 7.1875 14.125 2.81871 1.40641 3.37415-3.11415 1.21875-4.28125-3.15853-2.33741 1.87653-5.51628-.40625-8.40625-.69924-2.75673-4.62871-.84609-5.40625-2.8125 1.37549-2.09969 5.13907-4.54262 2.25-7.21875-3.16744-5.4362.005-13.43655-6-17.53125-1.38136-1.48193-3.93609-3.4947-1-5.0625 4.252-3.21375.5288-8.66989-.34375-12.46875.91164-2.0269 5.99166.2012 3.9375-3.3125-2.91702-9.58826-1.17879-19.66729 1.125-29.15625.31266-1.49979.77836-6.81096-2-5.125-2.68518 2.08137-.84161 7.93233-5.59375 7.375-3.81207.94831-2.10586 7.55204-3.5625 10.90625-1.38496 8.65689-3.62194 19.60359 4.375 25.90625-2.7943 1.5822-5.26271 4.24017-3.4375 7.625.74646 5.20316 7.90671 8.98398 5.46875 14.5-1.66249-.8745-4.37301-3.30083-5.96875-.53125-2.11328 2.28029-2.06094-2.81677-2.21875-3.875-3.2805-16.13607-3.29517-32.69616-3.125-49.09375 2.01184-9.12015 7.12634-17.28686 11-25.71875 5.88673-9.18574 12.86017-18.45739 22.28125-24.15625 4.54738-3.10502 10.14318-3.84543 15.15625-6.0625 5.2931-1.35648 10.80395-1.69131 16.25-1.71875.46484-.0416.9478-.0836 1.40625-.0937zm29.0625 19.4375c1.1853.67777-.68485 3.14269-.25.5.0361-.15072.0462-.45821.25-.5zm3.40625 4.3125c2.49309.76801 1.94609 6.32101-1.15625 4.40625-1.37531-1.13122-.56796-4.10147 1.15625-4.40625zm17.125 21.25c2.17655.86259 2.85537 6.24903.125 6.375-1.51606-.96885-1.29961-5.44828-.125-6.375zm3.96875 10.3125c1.4486 1.98109 1.39035 6.01703.0937 7.96875-1.4406-1.41116-1.93233-6.74861-.0937-7.96875zm-6.6875.0312c1.16022.68519-.4825 5.83651-1.34375 3.6875.0456-1.15923.36076-2.98953 1.34375-3.6875zm9.4375 13.625c-.35616 3.35068 1.38917 8.07016-.78125 10.8125-3.46918-2.44537.29097-7.78622.78125-10.8125zm-115.46875 5.5c1.82003.7644 2.51887 5.87286.0937 5.875-1.74007-.90159-2.30778-5.44808-.0937-5.875zm111.71875 20.15625c.39151-.0306.8016-.017 1.21875 0 5.85092.71638 9.44546 7.62749 8.78125 13.125-.52523 1.86635 1.14348 6.91851-1.78125 6.96875-3.07164-3.32754-.92615-10.81412-6.34375-12.3125-5.21978-.75305-6.21568 6.3107-7.875 9.8125-2.10618 6.57334-6.29097 15.39887-.0937 21 3.63905 1.01842 1.97811-4.43148.71875-5.9375-3.64098-3.49519 1.91076-7.02866 1.6875-11 2.38723-2.46427 2.01788-7.25335 4.96875-9 2.60126 3.2967 1.49292 8.53737 3.9375 12.15625 2.18197 3.25105-1.58833 4.66153-4.1875 4.5625-1.8713 1.73081 2.14826 3.04261 1.59375 5.15625 1.92007 5.92577-3.36652 12.16647-8.90625 13.3125-5.13425-2.37366-6.76466-9.03308-8.21875-14.03125-1.65066-7.83248 2.87189-14.9853 3.96875-22.5625 1.62017-5.15579 4.65856-10.79025 10.53125-11.25zM648.5625 402.8437c1.58964 5.16247 1.03476 11.17837 4.6875 15.65625 1.27819 1.90515-.60188 2.42224-1.8125 1.15625-1.73545-1.76625-4.06448-1.63127-5.03125.84375-2.31998 3.58658-2.46254-4.72625-1.625-6.5 2.07158-3.44452 2.19907-7.76025 3.78125-11.15625zm.375 21.09375c3.03428.40857-1.3621 3.58703-1.0625.53125.17361-.40401.66733-.52911 1.0625-.53125zm7.84375 0c3.03428.40857-1.33085 3.58703-1.03125.53125.1736-.40401.63608-.52911 1.03125-.53125zm-4.21875 3.59375c2.56075.79341-.53023 4.60055-.8125 6.21875-1.98101 4.32187-.0988 9.46629-1.34375 13.71875-3.47919.005-2.55602-5.33099-2.53125-7.71875.76219-3.92719.93511-10.0678 4.6875-12.21875zm2.625 8.6875c3.16596 1.81958-.77917 4.47906 0 0zM651.90625 450.5c2.35801.91846-.15616 6.3375-1.625 3.1875-.32846-1.30075.47698-2.61321 1.625-3.1875zm-2.8125 10.78125c.10111-.01.20892-.01.3125 0 3.48443.84391 6.81472 4.12934 7.9375 7.5 1.29029 9.30638-3.0477 18.29431-8.8125 25.3125-4.67331 5.10516-4.2075 12.90609-9.0625 17.75-2.5887 1.89731-6.15369-1.61503-6.8125-3.71875-.11424-9.32851 1.98773-18.3674 3.9375-27.40625-.0958-7.94173 4.00639-16.1872 11.59375-19.28125.30058-.0509.60291-.12752.90625-.15625zM574.4375 475.875c.61376-.0106 1.25657.0961 1.9375.40625 5.08946 1.42906 8.34256 6.15541 8.09375 11.40625 1.62692 7.90349 4.45871 15.6039 4.3125 23.8125-2.75584 2.47971-4.64249 7.61082-8.59375 8.09375-4.51574-1.966-5.16194-7.21102-7.34375-11.09375-.41667-4.70128-2.8721-13.36191-.625-14.15625 2.13965 1.4158 2.56272 4.69859 4.8125 6.375 2.50336 1.67354 2.02284 6.2377 4.96875 7.0625 2.58861-3.28148 1.7066-8.46995-1.71875-10.9375-1.90248-2.88997-6.5298-5.3934-6.1875-9.125 2.88204-.18107 7.12157-.46864 4.3125-4.4375-.47203-.5589-1.23407-.69793-1.9375-.59375-3.17705.39381-4.24419 4.71438-7.3125 2.03125-.25236-2.13757-.49169-4.02268-.75-5.75 1.90321-1.17989 3.7664-3.05446 6.03125-3.09375zM632 512.625c.10125-.0159.2-.0105.3125 0 1.9363 1.54671-2.27115 5.77385-1.5625 1.53125.10336-.70387.54126-1.41973 1.25-1.53125zm-44.5625 9.34375c1.61631 1.45919-3.62067 4.25984-2.125 1.28125.54305-.60552 1.26469-1.29433 2.125-1.28125zm-5.34375 3.34375c3.03909 3.23245 3.85943 8.54048 4.59375 12.90625.53201 2.40398-2.03841 6.49876-4.53125 5.4375-1.13378-5.84995-1.68102-12.31125-.40625-18.15625.0621-.11364.21528-.19647.34375-.1875zm43 27.28125c1.48259 1.34738.45271 6.18053-1.75 5.96875-1.00437-1.72553-.66076-5.5874 1.75-5.96875zm2.28125 51.71875c2.55133.1177 1.40437 5.46177-.625 3.9375-.40741-1.07513-.7626-3.45744.625-3.9375zm-4.75 9.4375c6.9457-.17335 7.64504 8.76021 7.1875 13.875-2.26467 8.60951-10.70316 13.5697-15.875 20.375-5.45601 5.81749-9.04727 13.13682-13.3125 19.6875-2.10338 2.16695-6.26027 1.23616-5.59375-2.28125 2.24671-6.2967 4.07678-12.8076 5.8125-19.3125 4.56649-11.22019 10.57634-22.1168 18.71875-31.15625.84722-.69731 1.95264-1.17878 3.0625-1.1875z" opacity=".98999999"/>
      <path fill="#081403" stroke="#d7e2e5" stroke-opacity=".20855324" stroke-width=".50507629" d="M648.73556 470.33054c-4.18843 2.08589-8.13937 6.22873-7.51301 11.30108.0719 5.45349-.27378 11.19563-3.51975 15.78363-1.01845 1.39964-.58112 4.53424 1.62571 3.40927 4.90363-3.42693 3.77745-10.41417 4.26113-15.64036.24843-2.18416-.66669-6.93585 2.93621-6.34624 1.94717.081 5.24041.10918 4.70352-2.74636-.17956-1.79102-.31887-5.29966-2.49381-5.76102zM621.3983 621.94812c-2.94596 2.39019-3.85814 6.61122-6.69226 9.24921-2.65213 2.9246-5.97431 5.72257-5.96621 10.02261-.71797 2.73366-5.32688 4.58921-3.78807 7.74976 1.88929.79473 3.46091-2.14993 4.81401-3.14094 4.73391-5.37712 6.53805-12.85784 12.13761-17.58297.75513-1.82718 1.06037-4.7628-.25254-6.29767l-.12627-.0158-.12627.0158zm-25.41165-19.69797c-2.82546.25322-1.65726 5.25262 1.13642 3.72493 2.489-.7851 1.31821-4.13768-1.13642-3.72493z" opacity=".98999999"/>
      <path fill="#e2d60e" stroke="#d7e2e5" stroke-opacity=".20855324" stroke-width=".25253814" d="M575.17423 477.21852c-2.84503.0805-5.59204 1.94369-6.92901 4.41152-.33242 1.7188 1.95834 1.86779 3.15673 1.94928 1.23435.11857 3.29434.24337 3.28299-1.49155.56886-1.17071 1.97605.10682 2.7069.44983 1.28514.88861 3.02353 2.17543 2.32019 3.96169-.11858.90191-.47143 2.1681-1.6415 1.90982-1.97791.22284-2.23201 3.0497-1.34161 4.4352 1.29271 2.25165 3.59699 3.52501 5.48482 5.15336 1.06428 1.41724.68637 3.39812 1.48366 4.95606.62306 1.15301.29869 2.54105-.70237 3.30667-.47926.64582-.14549 2.40899-1.28637 2.28074-1.73033-.73736-1.98688-2.86217-2.24128-4.45888-1.01063-2.87235-4.11658-4.27134-5.53216-6.84221-.0365-1.4836-2.65303-2.91365-3.17251-1.01804-.0769 2.81771.37073 5.668 1.13642 8.37322.63516 1.05977 1.8424 1.79641 1.90193 3.17251.37454 2.93723 1.06109 5.97065 3.21197 8.16014 1.22829 1.13603 2.23264 3.02222 4.00115 3.28299 2.20247-.69557 3.48292-2.89104 5.0113-4.45887 1.69241-2.0659 2.7052-4.98428 1.68885-7.58404-.55992-1.77224.21762-3.48975.52086-5.20071-.30213-3.67146-1.65937-7.17246-3.55921-10.29882-1.08549-2.18492-.19659-4.63473-.31567-6.91323-1.94321-3.36309-4.75462-7.72878-9.18608-7.53668zm57.82335 23.85696c-1.21051 1.16624-.49083 3.18609-.72393 4.69562-.18021 1.92175.22003 3.94854 1.78932 5.22439 1.44511 1.662 4.34915 2.72959 6.04513.82075.83289-.58978 1.68978-2.36347.13416-2.59641-1.0581-.0376-1.89572 1.84597-2.65954.56032-1.62345-.9967-1.7554-3.2494-2.43068-4.88503-.57538-1.22944-.1808-3.27143-1.61028-3.88089-.1817-.0936-.36333.0343-.54418.0613z" opacity=".98999999"/>
    </g>
    <path fill="#e2d60e" d="M538.03315 533.30962c-4.00642 1.19718-6.9905 4.86782-8.2601 8.7799-.91239 3.84266-.61282 7.90778-2.05293 11.63922-.79941 3.29802-1.14304 6.68956-1.89058 9.98813-.23527 2.26217-.30479 4.99453 1.84803 6.40175 1.6278 1.56552 4.60694.54892 4.89758-1.65689 1.60368-2.96802 1.76087-6.53372 3.8011-9.27535 1.80229-3.10872 4.75792-5.61352 5.64101-9.23352 1.9609-3.74578 3.1891-8.3866 1.5551-12.46853-1.27686-1.79315-3.19953-3.97826-5.53921-4.17471zm-.065 6.72503c1.26366.30647 1.38711 2.08921 1.6569 3.15946.48234 1.43131-.38837 3.24313-2.07112 2.92393-1.22778-.0679-3.24574-.22023-3.29754 1.5107-.65589 4.2365.33406 8.86099-1.62441 12.81655-.6291.70522-1.26836 2.12958-2.33913 2.09549-1.59496-1.0017-.2412-3.19488.31456-4.44607.93779-1.49885 1.63087-3.06651 1.44138-4.87476.36166-2.97922-.1232-6.19517 1.01366-9.01871 1.2224-1.68168 2.80073-3.60857 4.9057-4.16659zm-54.36067 3.91481c-2.4565.18472-5.07246 2.6444-4.15035 5.1981.37081.73696.54687 1.91088 1.64064 1.97365 1.61877-.32576 2.55157-2.35637 4.21533-2.35539 1.13826.48449 2.67215 1.81601 1.99802 3.15947-1.16888.61274-2.88793.11996-3.9473.82845.63715 3.78265 4.78194 5.53905 6.37578 8.73117.68801 1.80475.86831 4.24941-.51169 5.70978-1.21832.18633-1.35282-1.73038-1.59191-2.56656-1.05699-2.49135-3.61335-4.03387-4.70265-6.5301-.49024-1.14413-1.78831-.33788-1.81933.60915-.64646 3.95203 1.55244 7.4984 2.42848 11.20839 1.02624 2.20706 2.10425 5.31846 4.80824 5.80725 2.2306-.44415 3.33253-2.85884 4.75138-4.41026 1.60231-2.15982.46782-5.06485.79947-7.53721.20078-3.59412-2.05815-6.62763-2.78936-9.99824.12528-2.89795-.43917-6.17762-2.98079-7.94333-1.31998-.92947-2.85011-1.92286-4.52396-1.88432zm68.79352-74.34899c-3.91723.0518-6.12686 3.99743-7.35855 7.21236-.99287 3.51473-1.58537 7.14686-2.91792 10.57188-1.33161 5.26288.21776 10.99943 3.49458 15.23991.867 1.02204 2.25045 2.39171 3.63867 1.29952 2.76075-1.55622 5.58957-4.15868 5.31993-7.6347.25576-1.7283-.6733-3.17408-1.68126-4.44275-.43079-.63653-.16893-1.73776.8122-1.41323 1.12301.1578 3.2033-.16328 3.03763-1.68126-1.10859-2.27452-1.92267-4.67691-2.2498-7.21236-.38527-.81716-.21204-2.64297-1.2914-2.8427-1.6685 1.49552-1.82122 4.0343-3.062 5.85598-.88022 1.7972-.61343 4.06397-2.22543 5.47424-1.2108 1.89122 1.17318 3.56365 1.50257 5.36053.65709.99531-.15794 2.77795-1.41323 2.28229-2.32325-2.21383-3.2637-5.93732-1.92705-8.96834 1.32104-3.97159 2.28602-8.16205 4.38802-11.80779.84182-1.58595 3.21622-2.7058 4.62144-1.12084 2.45411 2.01367 1.28549 5.86918 3.19195 8.17887 1.11594.59779 1.48367-1.15713 1.37142-1.9326.0258-3.1327.66243-6.74864-1.64107-9.2969-1.17141-1.8027-3.01184-3.38719-5.31018-3.13023l-.25981.007-.0407.001zm-33.64141 174.3717c-2.97591.62332-4.46723 3.73208-6.29979 5.88651-5.79687 7.85681-9.74213 16.92164-12.21304 26.33129-.45734 2.21352-1.79606 4.3167-1.7841 6.58922.29774 2.0713 3.23186 2.59646 4.38589.90154 2.86281-3.63537 4.81781-7.97873 7.7809-11.60637 3.57699-4.98434 8.65236-8.76303 12.05308-13.88865 2.11864-3.11938 2.0233-7.19361.92591-10.66422-.70653-2.03765-2.63601-3.64562-4.84885-3.54932zm-.7716 6.79c.71235.56365.30813 1.96287.39799 2.78586-.48276 1.89563-2.45323 2.98632-3.29754 4.75139-2.6423 3.73859-4.21977 8.54682-8.08142 11.20838-.78766.66548-1.29829-.38554-.85281-1.01525.93463-1.91783 2.96114-3.25932 3.08637-5.56359 1.15797-3.78438 4.85018-5.9394 6.57391-9.42546.6682-.90777 1.14439-2.22902 2.1735-2.74133z" opacity=".98999999"/>
  </g>
</svg>