<?xml version="1.0" encoding="UTF-8" standalone="no"?>
<!-- Created with Inkscape (http://www.inkscape.org/) -->

<svg
   xmlns:dc="http://purl.org/dc/elements/1.1/"
   xmlns:cc="http://creativecommons.org/ns#"
   xmlns:rdf="http://www.w3.org/1999/02/22-rdf-syntax-ns#"
   xmlns:svg="http://www.w3.org/2000/svg"
   xmlns="http://www.w3.org/2000/svg"
   xmlns:sodipodi="http://sodipodi.sourceforge.net/DTD/sodipodi-0.dtd"
   xmlns:inkscape="http://www.inkscape.org/namespaces/inkscape"
   width="200"
   height="279.89362"
   id="svg2"
   version="1.1"
   inkscape:version="0.47 r22583"
   sodipodi:docname="coppespagnole.svg">
  <defs
     id="defs4">
    <inkscape:perspective
       sodipodi:type="inkscape:persp3d"
       inkscape:vp_x="0 : 526.18109 : 1"
       inkscape:vp_y="0 : 1000 : 0"
       inkscape:vp_z="744.09448 : 526.18109 : 1"
       inkscape:persp3d-origin="372.04724 : 350.78739 : 1"
       id="perspective10" />
    <inkscape:perspective
       id="perspective2824"
       inkscape:persp3d-origin="0.5 : 0.33333333 : 1"
       inkscape:vp_z="1 : 0.5 : 1"
       inkscape:vp_y="0 : 1000 : 0"
       inkscape:vp_x="0 : 0.5 : 1"
       sodipodi:type="inkscape:persp3d" />
  </defs>
  <sodipodi:namedview
     id="base"
     pagecolor="#ffffff"
     bordercolor="#666666"
     borderopacity="1.0"
     inkscape:pageopacity="0.0"
     inkscape:pageshadow="2"
     inkscape:zoom="5.6"
     inkscape:cx="99.73296"
     inkscape:cy="63.723098"
     inkscape:document-units="px"
     inkscape:current-layer="layer1"
     showgrid="false"
     inkscape:window-width="1280"
     inkscape:window-height="968"
     inkscape:window-x="-4"
     inkscape:window-y="-4"
     inkscape:window-maximized="1" />
  <metadata
     id="metadata7">
    <rdf:RDF>
      <cc:Work
         rdf:about="">
        <dc:format>image/svg+xml</dc:format>
        <dc:type
           rdf:resource="http://purl.org/dc/dcmitype/StillImage" />
        <dc:title></dc:title>
      </cc:Work>
    </rdf:RDF>
  </metadata>
  <g
     inkscape:label="Livello 1"
     inkscape:groupmode="layer"
     id="layer1"
     transform="translate(-159.69394,-549.57445)">
    <g
       id="g2830"
       transform="matrix(0.45274055,0,0,0.45274055,140.44511,473.59973)">
      <path
         style="fill:#8fd5f7"
         d="m 257.84375,171.84375 c -7.8958,-0.0531 -15.70504,5.2029 -17.03125,13.21875 -6.14007,14.0099 -22.43781,18.86175 -36.33362,21.56534 -34.7354,9.46693 -66.7869,28.91736 -90.69516,56.03818 -16.951744,17.38587 -31.996385,37.68143 -37.65872,61.64648 -7.560987,20.70576 -29.335466,35.1797 -29.65625,58.65625 0.418288,15.28805 18.35417,26.74824 32.46875,20.625 17.627853,21.86003 25.48005,49.30287 34.81369,75.31948 9.43413,20.71615 15.98178,43.6301 31.84256,60.52427 16.84216,29.90276 50.06058,45.8257 82.25,53.5625 5.11175,7.81656 -2.45074,15.84936 -7.53125,21.25 -7.34138,8.74806 -17.66792,16.51434 -19.375,28.5 -19.60302,5.29774 -28.27738,25.46139 -38.78125,40.875 -3.79826,4.92767 -7.37613,13.05379 -14.71875,12.125 -6.60533,0.69492 -8.68399,7.9371 -8.53786,13.54976 -0.1694,7.45078 -3.57352,17.40083 -12.43089,17.41899 -4.74348,-0.61509 -9.86896,0.29782 -12.1875,4.96875 -8.10938,12.14004 -6.91443,29.03224 -0.71875,41.84375 1.94855,4.21464 6.41807,6.38217 10.90602,5.11502 67.83852,1.21549 135.7022,-0.10537 203.53141,1.78111 18.99048,0.48443 38.20439,-0.9195 57.06257,0.88512 9.83992,2.71093 23.2629,-0.8918 25.75,-12.09375 2.63158,-7.3176 -0.56316,-15.29946 0.28125,-22.46875 2.03746,-4.21263 0.80318,-11.06373 -4.75,-11.3125 -8.32215,-2.01122 -20.33776,-4.45531 -21.5,-14.84375 0.81662,-15.02756 -14.18798,-23.29924 -22.5625,-33.625 -6.89542,-7.44622 -11.32033,-18.31796 -8.71875,-28.15625 -24.09453,-7.59231 -38.74469,-29.76102 -57.0625,-45.6875 -7.51709,-7.48829 -5.67299,-21.15701 3.1875,-26.71875 7.53866,-6.40604 17.82062,-7.97985 27.28125,-8.5625 26.35783,-11.09164 47.20074,-32.75714 63.25347,-55.91273 10.38636,-19.72284 14.70315,-42.13464 25.84391,-61.51282 6.32138,-16.26901 8.33985,-37.22498 24.71512,-47.1057 6.68931,-3.9806 14.75478,-1.3852 21.875,-2.40625 15.8993,-4.26111 23.10201,-25.65342 13,-38.65625 -5.37248,-7.3146 -14.80541,-10.51785 -19,-18.96875 -11.28079,-17.62131 -12.43229,-40.26122 -26.77345,-56.1133 -13.50117,-20.95993 -29.00709,-41.30812 -50.32763,-54.7895 -19.17235,-15.75917 -42.30732,-27.90452 -67.08642,-30.62845 -9.73441,3.79982 -22.03739,-1.2112 -24.88487,-11.65931 -3.72761,-8.66385 -6.72357,-19.4922 -16.17763,-23.46569 -3.49715,-3.54136 -8.67032,-5.0318 -13.5625,-4.78125 z m 0.9375,4.8125 c 3.63224,-0.027 11.20063,2.15628 8.09375,7.03125 -3.12644,5.39705 -13.7208,4.57553 -13.125,-2.75 0.28742,-2.45904 2.60992,-4.26076 5.03125,-4.28125 z m -17.21875,15.8125 c 8.01312,-1.26966 6.66337,13.91372 -0.875,11.53125 -5.35001,-2.04142 -5.58287,-11.0218 0.875,-11.53125 z M 277.5,205.0625 c 8.34124,0.53256 7.5596,16.3423 -0.75,15.25 -5.31467,-2.58977 -4.94024,-11.90416 -0.5625,-14.9375 0.4295,-0.11805 0.85525,-0.34393 1.3125,-0.3125 z m -65,22.21875 c 4.57727,-0.0888 7.81698,3.60691 11.28125,6.09375 -2.00246,6.45622 -12.37899,9.42986 -15.375,2.25 -1.88086,-3.36884 0.062,-8.07979 4.09375,-8.34375 z m -63.0625,10.53125 c 3.88662,-0.19272 9.39983,5.05522 4.90625,8.15625 -3.25612,3.8525 -10.66474,1.41016 -9.84375,-4 0.43605,-2.32868 2.53535,-4.18938 4.9375,-4.15625 z m -45.25,44.5625 c 6.98695,0.31132 7.68196,12.04409 0.625,12.96875 -5.043662,2.72375 -10.871849,-4.14016 -6.875,-8.59375 1.243269,-2.29665 3.50351,-4.33557 6.25,-4.375 z m 228.25,1.28125 c 12.31479,2.39602 14.65455,19.01687 26.875,21.59375 4.40632,0.32287 5.8291,-5.61155 10.03125,-6.6875 7.64878,-4.69975 17.47302,-1.79229 22.90625,4.78125 8.66986,8.67161 12.84434,20.77085 15.4375,32.59375 -20.99225,-9.30538 -43.07825,-15.71819 -65.4375,-20.25 -24.51381,-7.69853 -50.74679,-5.97987 -75.9375,-10.03125 0.49811,-10.18947 11.02769,-15.93863 20.21875,-16.03125 12.61014,-1.01489 25.78615,2.40838 38,-0.3125 1.55295,-2.95192 4.3129,-5.89664 7.90625,-5.65625 z M 109.03125,306.25 c 7.8177,0.29336 6.01381,14.43908 -1.6875,12.25 -5.01521,-1.94473 -4.4121,-12.25336 1.6875,-12.25 z m -0.4375,61.53125 c 5.43183,-0.68123 7.36645,8.68165 1.34375,8.96875 -4.64262,1.2694 -9.72005,-5.96743 -4.15625,-8.25 0.89783,-0.35469 1.84355,-0.64167 2.8125,-0.71875 z M 57.75,377.125 c 6.383491,0.7217 6.922097,8.46313 7.90625,13.375 -3.99904,4.79756 -14.280988,4.35053 -14.53125,-3.0625 -0.473458,-4.27359 1.567764,-10.232 6.625,-10.3125 z M 279.5,527.34375 c 6.12792,0.0191 5.98741,9.02576 0.6875,10.40625 -7.93743,2.92714 -8.14945,-9.99717 -0.6875,-10.40625 z m -20.59375,10.5625 c 10.86114,0.64072 21.8077,7.969 25.21875,18.375 0.53346,5.49691 -6.67299,7.08352 -10.5625,4.78125 3.17203,5.64571 5.11561,15.39964 -2.1875,18.71875 -1.22573,7.34965 -7.722,11.34775 -13.78125,14.3125 -4.04434,1.96581 -1.74517,6.09488 -0.625,9.125 0.29929,2.25615 4.45563,1.15833 5.75,3.4375 2.20217,1.77288 3.84201,4.10461 6.0625,5.90625 -4.04946,5.23469 -14.86448,6.12681 -16.46875,-1.625 -0.48241,-2.25941 -4.84967,-1.54788 -6.40625,-3.8125 -13.65815,-10.76006 -12.7581,-30.91313 -7.03142,-45.68912 3.44736,-8.17388 7.59294,-17.04953 14.96892,-22.27963 1.57904,-0.7675 3.32152,-1.13748 5.0625,-1.25 z M 232,538.59375 c 6.68688,0.48097 7.12721,8.90581 4.0625,13.375 -2.48992,4.75569 -10.16588,2.24165 -9.6875,-3 -0.91304,-4.07418 0.2961,-10.52568 5.625,-10.375 z m 55.5625,25.34375 c 6.54937,4.39477 4.99904,13.62021 5.4375,20.4375 -0.12576,4.63372 -2.896,9.9222 -7.5625,10.59375 -0.23353,7.85517 -6.99329,17.01797 -15.625,14.5625 -5.62465,-3.21148 -1.27056,-10.71345 2.25,-13.8125 1.82278,-2.85445 5.66698,-4.86645 7.84375,-6.21875 -0.77261,-6.98547 0.50747,-14.14741 1.15625,-21.09375 0.49447,-2.91768 3.54062,-5.5198 6.5,-4.46875 z m 19.3125,3 c 4.33333,-0.2627 10.29757,6.15107 5.4375,9.40625 -4.09846,3.23916 -13.20005,2.23284 -11.8125,-4.5625 0.68015,-2.82792 3.50602,-4.85071 6.375,-4.84375 z m -24.9375,48.15625 c 3.42033,-0.25086 10.18541,2.42089 6.75,6.625 -3.07904,2.94961 -9.8227,6.94352 -12.75,1.5625 -1.84111,-3.97772 1.97971,-8.21495 6,-8.1875 z m 72.65625,89.0625 c 9.35483,-0.67405 21.6129,3.84921 22.125,14.625 0.64271,4.37305 0.33851,12.01613 -5.90625,11.3125 -26.12842,1.47876 -51.89126,-4.30969 -78.03076,-3.90623 -13.55781,-0.36844 -27.13551,-1.10405 -40.50049,-3.46877 -1.72283,-10.7357 8.97808,-19.5443 19.21875,-18.1875 13.97909,-0.31564 27.95734,4.655 41.78125,1.3125 13.75389,2.66949 27.51349,-2.05857 41.3125,-1.6875 z"
         id="path2838"
         sodipodi:nodetypes="cccccccccccccccccccccccccccccccccccccccccccccccccccccccccccccccccccccccccccccccccccccccccccccccccccccccccccccccccccccccccccccccccc" />
      <path
         style="fill:#2d1609"
         d="m 373.34375,211.875 c -1.42622,0.0325 -2.87402,0.17514 -4.375,0.4375 -14.16702,3.26238 -18.24399,22.96678 -27.28125,31.4375 -23.62526,-2.00655 -43.96923,12.30418 -64.40625,21.5625 -34.47239,19.33405 -61.09024,50.69956 -81.4375,84.1875 -7.99593,24.47964 -21.05819,46.15402 -33.5,68.3125 -8.53027,29.06767 25.68994,28.78503 37.96875,39.4375 18.15097,21.52239 17.74054,50.91788 31.65625,73.8125 6.54873,23.03399 19.0712,45.23858 36.3125,61.9375 17.96851,26.83335 49.65518,38.14193 79,47.8125 -17.73163,13.62885 -24.49007,36.54325 -40.90625,50.625 -24.04542,5.16676 -18.19604,38.47588 -39.75,45.5625 -25.66452,-3.93942 -3.58984,32.0413 -23.78125,29.96875 -25.68093,-0.8588 -23.11326,45.50863 -9.46875,55.84375 68.61469,3.38735 137.46543,1.16475 206.15625,3.0625 l 3.1875,0.21875 c 28.19287,-0.65006 57.15771,2.09667 84.84375,-2.5625 5.78816,-14.00298 2.48815,-30.39657 3.90625,-45.46875 -17.52654,-4.46604 -29.64354,-9.01936 -28.4375,-31.5 -21.54041,-7.06558 -29.61986,-30.78801 -31.59375,-48.90625 -24.63071,-6.62849 -38.81116,-27.61803 -56.375,-44.0625 -12.48812,-18.38434 12.93738,-29.87747 28.90625,-30.09375 23.33754,-8.63977 41.70469,-28.49237 57.125,-46.09375 9.89205,-1.15191 12.88414,-21.46122 18.46875,-34.96875 11.70063,-23.20479 19.20646,-48.50111 30.46875,-72.40625 6.23299,-25.59387 27.08528,-7.06503 40.9375,-20.0625 27.19195,-22.54638 -9.95112,-40.60606 -19.9375,-59.3125 0.59086,-4.29344 -3.98574,-17.71084 -8.5,-25.53125 -3.28386,-9.61711 -8.12394,-16.92065 -12.875,-24.375 -5.47014,-9.60918 -7.5591,-14.00601 -15.03125,-20.9375 -14.08061,-18.91716 -31.95366,-35.55798 -52.84375,-46.6875 -18.77217,-15.90929 -44.25574,-23.98769 -69.4375,-21.125 -4.5996,-16.35138 -17.60669,-40.61239 -39,-40.125 z M 375,222.65625 c 21.8509,-0.4938 34.96929,42.06977 11.40625,52.25 -9.07764,4.52829 -23.04347,1.84211 -27.5,-8.09375 -9.53945,-12.68466 -2.1626,-32.73684 9.0625,-42.53125 2.41635,-1.05616 4.77081,-1.57392 7.03125,-1.625 z m -44.65625,30 c 16.80866,-0.37574 21.39129,35.657 -4.71875,24.65625 -19.57775,-4.93152 -52.17172,25.82226 -35.1875,47.65625 -7.54254,31.31232 -31.64352,-18.49421 -39.875,4.59375 C 231.8692,347.97956 227.1949,378.87523 200,386.5 c -20.96559,10.56413 1.20692,-33.64132 7.375,-37.40625 7.12178,-23.99949 29.0461,-40.82941 46.53125,-58.03125 20.1261,-13.58148 39.03889,-30.25572 64.5625,-32.71875 4.37738,-3.96076 8.38641,-5.60952 11.875,-5.6875 z M 425.5,258.9375 c 3.85822,-0.19936 7.86804,0.92186 11.6875,3.875 22.93211,5.14347 43.94013,16.27965 61.9375,30.53125 15.44163,13.67785 28.91605,28.38768 40.9375,44.71875 8.06717,15.06219 4.17898,7.82693 14.1875,30.03125 13.27423,17.96018 -5.95705,27.22648 -17.46875,11.03125 -7.774,-21.49652 -20.21047,-37.87753 -37.28125,-54.28125 -12.64572,11.8706 -39.25179,18.431 -29.9375,-10.0625 -2.80584,-19.27985 -33.19264,-49.1636 -49.4375,-25.9375 -28.14452,2.07538 -13.21458,-28.94569 5.375,-29.90625 z m -72.84375,19.21875 c 7.22664,0.18192 15.6229,6.46458 23.46875,10.1875 18.61398,-13.98839 23.86098,4.11861 38.90625,9.71875 17.2736,-12.01174 41.86522,-6.44558 45.5625,17.375 -11.68498,15.6502 1.78668,35.48406 20.8125,33.84375 18.28597,-27.11403 37.21873,7.91912 41,23.71875 -2.10868,0.0646 -5.42177,3.06077 -7.8125,1.40625 -23.13013,-12.47234 -51.43512,-13.50149 -77.0625,-20.15625 -37.8084,-4.3019 -76.20097,-2.16096 -114.21875,-1.5 -28.53406,0.92638 -55.56308,12.6586 -83.34375,16.25 -9.76268,-13.73507 18.28922,-51.00448 34,-28.1875 25.82585,3.41927 24.69469,-24.90728 24.5,-43.75 12.50731,-17.83047 25.20895,-12.52873 41.53125,-7.9375 3.30725,-8.34974 7.7117,-11.09322 12.65625,-10.96875 z m 14.5625,78.875 c 14.56936,-0.0202 29.15243,0.5715 43.59375,1.21875 21.08626,2.12158 47.40552,2.76807 63.40625,16.25 29.19548,1.3983 54.63244,14.00906 80.6875,24.75 18.70683,6.52646 54.54691,28.37858 26.34375,47.4375 l -1.6875,1.8125 c -25.49268,-3.53243 -46.85256,-23.11642 -71.46875,-31.125 -27.68951,-8.37066 -55.13194,-19.92136 -84.46875,-21 -34.03244,-9.34983 -69.30155,-3.56727 -103.78125,-0.15625 -27.3195,0.46502 -52.03913,12.51263 -78.15625,18.53125 -23.26045,2.78056 -44.09472,28.3128 -66.53125,21.125 -22.47942,-24.3103 22.08631,-41.70414 41.40625,-47.40625 24.39339,-12.45997 52.00709,-17.85514 78.65625,-23.46875 23.478,-6.17336 47.71773,-7.93504 72,-7.96875 z m 2.25,47.96875 c 8.00963,-0.0703 16.02353,0.0681 24.03125,0.375 26.88856,2.20398 55.38709,3.67444 80.21875,13.1875 21.12175,5.90728 42.41945,22.33075 61.59375,22.28125 30.02901,6.08103 -10.66735,44.08108 -10.4375,18.46875 2.33541,-25.55203 -5.49571,-1.26405 -8.71875,8.71875 -18.88837,13.25034 2.47006,-15.92388 -2.3125,-23.9375 -5.50306,8.60523 -16.50672,26.17759 -19.89779,40.87923 -12.08871,19.86576 -21.91162,42.7601 -27.82096,65.80827 -20.43212,13.23216 5.24169,-21.09011 5.90625,-30.875 9.65501,-22.86799 19.42877,-45.03727 27.21875,-67.875 -1.33572,-21.95781 -5.47407,15.1269 -11.65625,12.71875 -10.45597,20.55367 -14.85655,44.92079 -28.6875,62.3125 1.77747,20.5056 -27.29261,25.55069 -43.78125,28.34375 -6.8983,-20.9555 -25.9273,-43.77319 -52.375,-33.6875 -21.12071,3.60277 -9.08963,50.09959 -29,35.46875 -27.06129,-6.23902 -41.42258,19.97256 -42.03125,43.375 -8.99778,4.58198 -25.70173,-18.74306 -26.96875,-29.96875 -23.08393,-12.38464 -13.43328,-42.26986 -9.625,-62.6875 13.16452,-13.53073 4.44203,-32.74266 -15.78125,-29.0625 -21.55686,-0.96835 -49.29631,-35.76648 -15.75,-43.53125 24.59695,-8.01393 48.42919,-20.17501 74.34375,-23.125 23.52308,-4.91114 47.50235,-6.97658 71.53125,-7.1875 z m 7.9375,20.3125 c -9.64454,0.098 -20.04699,9.28362 -23.40625,18.71875 -27.40667,20.00272 6.15216,36.09743 15.53125,55.03125 9.20016,6.43989 20.43185,-14.88723 26.28125,-20.84375 23.97348,-10.86701 6.16678,-29.0995 -3.53125,-41.375 -3.57352,-8.37874 -9.08828,-11.59008 -14.875,-11.53125 z m -1.8125,11.71875 c 3.36121,0.0356 6.65174,2.11919 9.5,7.28125 26.09648,14.27578 4.40471,28.43128 -7.5625,42.40625 -7.523,5.81048 -21.08239,-15.90328 -25.1875,-23.03125 2.34632,-8.4901 13.16637,-26.76308 23.25,-26.65625 z m 150.875,38.75 c 11.43624,-0.55305 -1.2283,24.50273 -2.75,34.28125 -4.64918,-3.46837 -33.59894,-29.17981 -7.8125,-30.28125 4.76456,-2.6856 8.18894,-3.88522 10.5625,-4 z m -297.8125,7.5 c 1.94737,-0.14218 5.00899,1.41708 9.53125,5.4375 27.46343,-3.67157 5.23326,19.76018 6.28125,33.75 -4.05352,12.49275 -26.32831,-38.41972 -15.8125,-39.1875 z m 266.46875,13.0625 c 23.12722,17.44028 -14.65243,45.24113 -20,65.375 -2.06363,7.58283 -10.10477,1.76831 -6.8125,-2.78125 15.61109,-17.04265 11.86675,-43.28339 26.8125,-62.59375 z m 16.46875,22.53125 c 2.9118,-0.16573 4.39902,4.1761 2.0625,15.90625 -8.68839,21.46129 -22.49202,39.62149 -37.59375,57.59375 l -1.46875,2.0625 -1.40625,0.875 c -8.89847,-19.70613 16.86673,-41.53238 25.40625,-59.625 3.17107,-8.94865 9.25626,-16.59942 13,-16.8125 z m -136,8.25 c 23.30446,0.39495 30.92988,34.34726 22.5625,53.75 -23.01892,1.47495 -8.44961,-25.39552 -16.40625,-35.3125 -20.00943,2.36983 2.50426,37.16177 -22.5625,34 -13.52235,-13.11505 -1.45601,-37.65585 7.09375,-50.96875 3.33361,-1.05276 6.45055,-1.51725 9.3125,-1.46875 z m 63.0625,31 c 3.37253,-0.17192 6.72105,0.50117 9.90625,2.25 23.30946,14.84281 8.74325,49.39704 -13.96875,56.90625 -3.86158,1.2246 -18.18391,7.15177 -17.9375,-0.71875 14.92431,-6.38919 27.13319,-20.35285 35.03125,-36 -1.81254,-10.3528 -23.01732,13.47353 -28.46875,19.4375 -32.29949,1.53789 -8.1702,-40.67159 15.4375,-41.875 z m -114.21875,7.8125 c 10.98809,-0.10524 23.40457,10.82512 27.96875,20.125 -0.77677,26.01948 -19.3324,10.8542 -30.4375,-0.65625 -18.69749,8.47933 33.75566,22.47632 23.15625,40.21875 l -2.375,1.59375 -1.65625,-0.90625 c -30.02626,3.65129 -52.82657,-33.14231 -28.34375,-54.40625 3.30524,-4.18132 7.38781,-5.92757 11.6875,-5.96875 z m 52.03125,17.96875 c 12.29048,-0.22833 26.52546,11.07557 31.40625,24.46875 4.56418,20.49206 -6.30252,41.78087 -25.4375,47.375 -9.67159,9.07566 -19.25453,-7.8083 -25.96875,-13.28125 -6.50383,-10.29454 -1.78196,-27.65793 1.125,-38.875 2.97403,-13.97228 10.46572,-19.53127 18.875,-19.6875 z M 397.25,609.1875 c -2.54897,0.47298 -7.36924,9.06901 -12.125,14.46875 6.25485,16.63766 -27.08893,8.60517 -10.375,23.40625 11.69789,9.87269 26.38452,-16.55528 24.15625,-27.5 0.61001,-8.02014 -0.12687,-10.65879 -1.65625,-10.375 z m -48.03125,40.375 c 17.16443,7.12319 -6.69244,24.14575 -14.03125,32.09375 -19.50786,11.39316 6.37229,18.3851 5.9375,4.03125 11.7496,-19.88341 27.41728,-22.8007 47.4375,-22.8125 27.0015,-17.97573 44.62246,20.34432 62.09375,34.5625 21.6078,17.06714 -8.14618,16.68978 -21.71875,12.1875 -22.94827,-24.08952 -23.49742,17.5506 -43.3125,22.96875 -9.57467,3.69995 -21.59507,-3.38452 -28.21875,-10.03125 0.8562,-29.59138 -27.44197,-13.54196 -45.125,-17.375 3.83537,-16.34255 26.36734,-37.13666 36.9375,-55.625 z m 53.25,16.4375 c -11.07072,8.48606 22.65852,23.38997 30.25,32.28125 l 4.6875,2.78125 C 433.3849,690.26414 415.42493,672.32843 402.46875,666 z m -22.6875,11.40625 c -5.36188,-0.1868 -2.97996,31.67354 -0.84375,39.6875 10.1436,-0.19769 4.01468,-24.32021 6.59375,-32.375 -2.50866,-5.13959 -4.38325,-7.26489 -5.75,-7.3125 z m -71.59375,35.75 c 6.68853,0.0849 13.58044,2.02062 18.59375,5.9375 14.73831,-14.76533 22.93183,4.49533 27.8125,17.1875 8.11722,10.57582 -32.38918,-4.70054 -42.1875,3.1875 -7.11546,5.55028 -15.05435,-1.96173 -22.71875,-1.625 -9.88646,-16.13189 3.78523,-24.87427 18.5,-24.6875 z m 109.375,1.59375 c 2.17306,-0.003 4.6529,1.14726 7.28125,3.9375 8.05523,2.75097 18.22547,0.80971 27.09375,1.75 13.51207,-3.1951 23.63426,6.35419 25.5,19.21875 -16.60865,3.82979 -34.99202,0.94617 -52.09375,0.0937 -22.93932,8.72454 -19.51576,-24.98165 -7.78125,-25 l 0,5e-5 z m -43.40625,31.5 c 19.70372,-0.33445 32.06738,7.69369 58.375,2.75 24.53052,3.50021 67.83704,-13.17361 58.0625,22.78125 -22.08598,3.19839 -46.6422,-3.90049 -68.3125,0.65625 -9.23256,-0.9499 -13.21804,-3.06589 -21.26519,-2.23481 C 356.49074,769.37762 313.5331,768.3671 269,768.3125 c -10.58092,2.68389 -13.02695,-21.1301 -0.75,-21.1875 32.33807,2.18839 65.19538,5.13408 97.40625,0.21875 2.84331,-0.70455 5.68518,-1.04597 8.5,-1.09375 z m -60.59375,29.65625 c 58.21291,2.9643 116.45363,6.67113 174.8125,5.9375 22.05057,-6.54611 36.35103,9.33668 24.59375,29.15625 -5.78926,1.88143 -11.99757,1.07801 -17.96875,1.46875 -82.70697,-0.47613 -165.61928,2.91893 -248.15625,-3.09375 -15.35491,-3.01844 -13.04671,-39.7429 6.59375,-32.0625 20.35122,0.80905 40.13457,1.18871 60.125,-1.40625 z"
         transform="translate(-117.1777,-43.436559)"
         id="path2832"
         sodipodi:nodetypes="ccccccccccccccccccccccccccccccccccccccccccccccccccccccccccccccccccccccccccccccccccccccccccccccccccccccccccccccccccccccccccccccccccccccccccccccccccccccccccccccccccccccccccccccccccccccccccccccccccccccccccccccccccccccccc" />
    </g>
    <path
       style="opacity:0.98999999;fill:#ea4612;fill-opacity:1;stroke:none"
       d="m 258.46513,636.82579 c -11.81208,0.0227 -23.67369,0.55701 -35.27212,2.93696 -6.59885,0.96486 -13.06638,2.66721 -19.27556,5.06899 -6.07858,2.30243 -12.23119,4.43329 -18.31182,6.67171 -2.96525,1.01036 -5.1894,4.12377 -4.48762,7.31025 1.11483,5.32625 5.63969,9.30891 10.41156,11.48345 3.45302,1.6842 7.73317,-0.10587 10.96894,2.13662 3.20754,2.2589 3.25848,7.10451 0.855,9.92912 -1.58458,1.80786 -1.42858,4.41002 -2.0574,6.61538 -1.01414,5.90233 -2.43531,12.3857 0.20681,18.07684 1.11215,2.31474 2.98572,4.22587 5.13306,5.55286 1.58956,5.24873 4.73166,10.2591 9.34683,13.37711 1.14983,0.51978 3.08986,1.22713 3.94453,-0.0572 0.51737,-4.4193 1.29695,-8.90753 3.76364,-12.71472 2.38631,-4.02834 6.82676,-7.17219 11.68578,-6.80786 2.00964,-0.0555 3.79453,0.89593 5.59523,1.63641 2.14694,0.30098 3.26195,-2.00388 3.66584,-3.73015 1.22095,-3.79107 1.39005,-8.03647 3.69443,-11.40484 1.52622,-2.19251 4.37201,-2.52657 6.78144,-3.06559 3.58874,-0.50144 7.39337,0.23069 10.31867,2.4296 4.42631,3.16529 7.43249,7.95998 9.28966,12.96265 1.17162,1.22825 3.03978,0.0969 4.45189,0.0215 5.02239,-1.13534 10.51343,-2.28321 14.25605,-6.09545 1.65855,-1.65034 2.20681,-4.00087 2.47963,-6.22407 1.16194,-2.38385 2.85211,-4.52875 3.89985,-6.99349 3.35066,-6.69244 5.22091,-14.03823 8.64833,-20.68255 0.55584,-0.79651 1.64241,-1.14289 1.9151,-2.20808 0.95564,-1.92461 1.48546,-4.02103 2.27954,-6.00969 0.32866,2.60285 -1.28033,4.93596 -1.9753,7.35986 -3.44972,9.24753 -7.56875,18.27693 -11.06251,27.48845 -1.63157,3.9183 -3.96121,7.55021 -5.17707,11.62856 -0.37565,1.30509 1.2036,1.97526 2.20281,1.3477 1.43377,-0.40287 2.64215,-1.45465 2.79217,-3.01269 2.63991,-9.50465 7.71613,-18.10258 12.5196,-26.60415 1.58808,-3.2301 2.20445,-6.84523 3.75621,-10.10475 1.20485,-2.88724 2.48145,-5.74961 4.03996,-8.46742 -0.47015,3.51665 -2.3798,6.72379 -2.79404,10.2615 0.36898,1.39611 2.1284,0.88158 2.95839,0.23581 1.21911,-0.50976 2.09016,-1.41052 2.28106,-2.75615 0.75372,-2.13719 1.41597,-4.3033 2.37807,-6.35486 0.15182,2.53654 -0.79043,5.68747 1.22909,7.69612 2.15644,1.50682 4.89225,-0.19028 6.49561,-1.77932 2.13555,-2.04691 4.08601,-5.56918 2.21523,-8.39642 -2.17627,-2.94743 -6.20324,-2.50256 -9.38256,-3.32284 -8.16424,-2.32419 -15.36301,-7.07751 -23.50727,-9.51605 -11.51037,-4.14053 -23.82074,-4.91521 -35.91795,-5.81189 -2.41081,-0.12305 -4.82555,-0.12583 -7.23879,-0.10719 z m -0.0786,10.28294 c 2.83822,-0.0343 4.94637,2.34529 6.09997,4.70702 2.44618,3.68887 6.08838,6.95417 6.83408,11.49272 0.44906,2.94052 -2.01051,5.21295 -4.43759,6.35269 -3.0145,2.4314 -4.67141,6.14685 -7.62103,8.65174 -0.96717,0.97214 -2.42063,1.74853 -3.80525,1.35251 -2.70802,-3.93303 -6.00354,-7.4809 -9.0467,-11.16188 -1.97711,-2.36027 -3.87719,-5.77613 -2.30812,-8.81803 0.92036,-1.68344 2.4745,-2.99154 3.83734,-4.28754 1.56799,-2.94526 3.74781,-5.76486 6.75933,-7.35119 1.17533,-0.52396 2.41245,-0.87196 3.68797,-0.93804 z"
       id="path2847" />
    <path
       style="opacity:0.98999999;fill:#ea4612;fill-opacity:1;stroke:none"
       d="m 304.88164,693.60385 c -1.20274,4.53115 -2.66365,9.13576 -5.6492,12.85865 -1.04844,1.21801 -0.75711,3.31823 0.90038,3.80161 1.167,0.44495 2.29897,-0.33077 2.64071,-1.46136 1.93411,-4.66078 4.90204,-8.70435 7.75656,-12.81613 2.41392,-3.66513 5.28929,-7.61519 4.79489,-12.2552 -0.0847,-2.26122 -1.72321,-4.18348 -3.44432,-5.47375 -2.58028,3.35138 -4.90904,8.58183 -6.99902,15.34618 z"
       id="path2849"
       sodipodi:nodetypes="cccccccc" />
    <path
       style="opacity:0.98999999;fill:#ea4612;fill-opacity:1;stroke:none"
       d="m 318.99082,688.32623 c -2.3134,0.54447 -3.75345,2.84259 -4.87699,4.78776 -2.14569,4.50094 -4.80289,8.58934 -7.7079,12.63652 -3.02852,4.42611 -6.63412,9.36078 -6.06588,15.02521 0.19559,1.03036 0.25804,2.51604 1.2148,3.0513 1.24129,0.072 1.69637,-1.57012 2.52964,-2.23667 6.45573,-7.79973 12.73548,-16.00556 16.34981,-25.5537 0.53269,-2.20836 0.92264,-4.76833 -0.007,-6.93866 -0.29723,-0.49408 -0.85081,-0.83179 -1.43632,-0.77176 z"
       id="path2851" />
    <path
       style="opacity:0.98999999;fill:#f1d73c;fill-opacity:1;stroke:none"
       d="m 236.68723,567.84726 c -3.00876,0.0946 -4.98409,2.96774 -8.03856,3.00105 -9.29667,1.82963 -17.02857,7.7902 -24.62381,13.08668 -6.32963,5.3345 -12.43945,11.06131 -17.71512,17.44337 -2.43309,3.13924 -4.01301,6.78795 -5.7612,10.30849 -3.29815,4.65002 -6.12018,9.95933 -7.14392,15.64324 -0.33046,2.01472 1.91093,3.52032 3.67851,2.51635 5.31121,-1.53911 9.82001,-5.11545 12.79397,-9.75212 3.92724,-5.88455 7.28535,-12.10628 11.84401,-17.5639 0.63286,-1.26104 2.05363,-2.18522 3.37534,-1.33397 3.75053,1.39574 6.64789,5.56031 10.98503,4.96195 1.92988,-0.73633 2.98907,-3.10605 3.09238,-5.06301 -0.78478,-2.33208 -2.2423,-4.6272 -1.7281,-7.22565 0.96236,-6.26152 6.07518,-11.45587 11.9813,-13.41458 2.23219,-0.79114 4.63046,-0.53351 6.88626,-0.19796 0.95437,-0.0267 0.30502,-1.58528 1.29354,-0.93984 1.30361,0.0302 0.0188,1.37881 1.14196,1.65735 3.14236,0.11709 5.41617,-3.18449 4.83058,-6.16455 -0.39824,-3.41548 -3.13656,-7.1658 -6.89217,-6.9629 z"
       id="path2853"
       sodipodi:nodetypes="ccccccccccccccccccc" />
    <path
       style="opacity:0.98999999;fill:#f1d73c;fill-opacity:1;stroke:none"
       d="m 256.81802,554.30546 c -2.64756,-0.11229 -4.60423,1.80054 -5.88158,3.91096 -3.433,4.83612 -5.11283,11.95818 -1.30366,17.07882 2.39215,4.54623 8.47562,5.34476 12.86471,3.53704 5.6341,-2.40332 7.1323,-9.64502 5.19899,-14.98231 -1.52852,-4.73627 -5.33493,-9.90328 -10.87846,-9.54451 z"
       id="path2855" />
    <path
       style="opacity:0.98999999;fill:#f1d73c;fill-opacity:1;stroke:none"
       d="m 279.93002,570.80826 c -4.95586,0.19079 -9.36366,4.66682 -9.84306,9.53989 -0.27689,3.8829 4.63109,5.70702 7.74105,4.5173 1.93927,-1.75521 4.15191,-3.76243 7.00333,-3.36523 6.16906,0.96475 10.83821,6.08739 13.46095,11.44989 1.65515,2.44393 0.66377,5.32669 0.28296,7.96338 -0.21146,2.81942 2.19764,5.56675 5.13376,5.12365 3.77638,0.0119 6.96772,-2.48909 10.01486,-4.1737 6.24491,6.27923 11.89809,13.26892 15.21537,21.54977 0.73666,2.79236 2.98065,5.08824 5.67335,6.10984 2.73955,1.24044 6.72891,-0.84289 6.17465,-4.11306 -0.57318,-3.96221 -3.19284,-7.27353 -4.67047,-10.93802 -2.29435,-5.13255 -5.02447,-10.1141 -8.90164,-14.21536 -7.44485,-8.76694 -15.82626,-17.04657 -26.29533,-22.09131 -4.7793,-2.55325 -9.94319,-4.37992 -15.1284,-5.77043 -1.86426,-0.91827 -3.67495,-1.91884 -5.86138,-1.58661 z"
       id="path2857" />
    <path
       style="opacity:0.98999999;fill:#f1d73c;fill-opacity:1;stroke:none"
       d="m 252.53315,615.1829 c -9.24769,-0.0819 -18.50695,0.61308 -27.54556,2.61503 -13.39027,2.85387 -26.97301,5.48708 -39.46071,11.26691 -7.10861,2.74005 -14.92545,5.15115 -20.11596,11.0491 -3.26531,5.1093 -1.51072,10.19314 1.40471,11.67222 6.59863,1.78787 12.85808,-2.01496 18.45782,-4.97353 4.23521,-2.31009 8.64048,-4.22746 13.40582,-5.05143 10.51328,-2.70887 20.69596,-6.99939 31.6147,-7.78152 13.39651,-1.36348 26.93367,-3.01578 40.39695,-1.66854 4.44647,0.67086 8.81606,1.78911 13.32897,2.03585 11.2387,1.53378 21.93205,5.53341 32.70785,8.97266 11.08365,3.49389 20.26876,11.69197 31.80056,13.96408 2.73537,-0.0165 4.44348,-2.67046 6.09381,-4.5173 2.69152,-3.43104 0.23295,-7.95055 -2.48603,-10.52015 -6.4603,-6.28176 -15.45729,-8.69953 -23.47677,-12.26595 -8.29057,-3.51162 -16.95336,-6.21809 -25.93056,-7.07659 -2.38624,-0.97501 -4.3722,-2.81873 -6.90228,-3.55724 -10.44579,-3.56771 -21.69444,-3.5741 -32.62148,-4.07006 -3.55649,-0.0821 -7.11441,-0.12402 -10.67183,-0.0935 l -1e-5,-4e-5 z"
       id="path2859"
       sodipodi:nodetypes="cccccccccccccccccccc" />
    <path
       style="opacity:0.98999999;fill:#f1d73c;fill-opacity:1;stroke:none"
       d="m 325.4264,668.95594 c -2.51947,0.44265 -4.76022,1.79709 -7.28629,2.26371 -2.0751,0.40948 -3.05218,2.80958 -2.01106,4.62846 1.68497,3.71225 4.79978,6.62383 7.89264,9.17608 1.54601,0.0503 1.27672,-2.44446 1.94032,-3.4865 0.94576,-3.65094 2.83348,-7.42333 2.13233,-11.26799 -0.3555,-1.10132 -1.62911,-1.44051 -2.66794,-1.31376 z"
       id="path2861" />
    <path
       style="opacity:0.98999999;fill:#f1d73c;fill-opacity:1;stroke:none"
       d="m 256.72707,651.38193 c -4.41581,0.93669 -6.74073,5.40664 -8.91562,8.93501 -0.87627,1.50882 -2.04141,3.49622 -0.56773,5.04075 2.44754,3.61078 4.79346,7.95234 8.97806,9.74259 2.75263,0.34944 4.28551,-2.72971 6.06684,-4.28587 2.4065,-2.90472 6.19913,-6.06563 5.32241,-10.28672 -0.9287,-3.69205 -4.95745,-4.98853 -7.1347,-7.78147 -1.00823,-0.92423 -2.36211,-1.53007 -3.74926,-1.36429 z"
       id="path2863" />
    <path
       style="opacity:0.98999999;fill:#f1d73c;fill-opacity:1;stroke:none"
       d="m 190.72599,672.21002 c -2.1146,0.64619 -1.39614,3.50952 -1.2127,5.16407 1.14527,4.9107 2.95994,9.93123 6.36666,13.74391 0.91291,1.31482 2.77411,0.39499 2.73867,-1.08132 0.17702,-4.5827 3.72582,-8.59555 3.1227,-13.26894 -0.80583,-2.45972 -3.90733,-2.4043 -6.01296,-2.21317 -1.74442,-0.55703 -3.03262,-2.44524 -5.00237,-2.34455 z"
       id="path2865" />
    <path
       style="opacity:0.98999999;fill:#f1d73c;fill-opacity:1;stroke:none"
       d="m 255.88828,692.28017 c -2.3883,-0.33193 -4.01384,1.64079 -4.81036,3.63809 -2.77945,4.80562 -4.73129,10.29644 -4.02212,15.92677 0.26433,2.59279 2.31943,5.58983 5.28534,4.97206 3.3027,-0.14154 4.20321,-3.90259 4.17371,-6.60921 0.18857,-2.84974 -0.53838,-6.85776 2.56687,-8.40804 1.64248,-0.58035 1.57112,1.91959 1.68767,2.90037 0.49043,3.45629 -0.46003,7.30215 1.19249,10.49995 1.26011,1.84397 4.40796,3.13068 6.23529,1.47545 1.9376,-4.29294 1.59726,-9.35294 0.61645,-13.86518 -1.22524,-4.9062 -4.72553,-10.1614 -10.23719,-10.49995 -0.89382,-0.0723 -1.79266,-0.0627 -2.68815,-0.0303 z"
       id="path2867" />
    <path
       style="opacity:0.98999999;fill:#f1d73c;fill-opacity:1;stroke:none"
       d="m 285.76108,706.29693 c -5.45866,0.18102 -9.57706,4.51105 -12.47058,8.72132 -1.72781,2.74394 -2.90934,7.27656 -0.0101,9.66116 1.64845,0.93826 3.81788,1.84652 5.67947,1.17228 4.04585,-2.9351 6.8903,-7.54074 11.53074,-9.62074 1.1705,-0.26784 0.52672,1.27357 0.13137,1.71799 -3.42169,6.05312 -8.2746,11.48918 -14.52205,14.63322 -1.40505,1.26583 0.60316,3.11721 2.07169,2.67804 6.38012,-0.4421 12.68658,-3.86572 15.73475,-9.64095 3.10017,-5.09035 3.50819,-12.47441 -1.15206,-16.76554 -1.88369,-1.99539 -4.23256,-2.92716 -6.99323,-2.55678 z m -6.48794,26.44693 c 0.90764,0.0357 -0.78474,0.425 0,0 z"
       id="path2869" />
    <path
       style="opacity:0.98999999;fill:#f1d73c;fill-opacity:1;stroke:none"
       d="m 233.80708,709.73291 c -3.73726,0.2798 -6.09373,3.76092 -8.18571,6.47783 -3.86858,6.13875 -0.98785,14.46141 4.60825,18.51386 3.62714,2.87231 8.55308,3.89024 13.06682,3.32481 2.43074,-1.80656 1.52336,-5.49791 -0.5154,-7.26608 -3.146,-3.61407 -7.79522,-5.65316 -10.70206,-9.46915 -0.43388,-0.83446 1.08163,-2.32948 1.5563,-0.99037 2.89121,2.28644 5.74551,5.36033 9.57021,5.86137 3.20282,-0.0789 4.26693,-3.9927 4.26465,-6.62942 -1.71565,-4.12331 -5.4105,-7.36426 -9.49947,-9.07502 -1.31927,-0.51792 -2.74094,-0.82558 -4.16359,-0.74783 z"
       id="path2871" />
    <path
       style="opacity:0.98999999;fill:#f1d73c;fill-opacity:1;stroke:none"
       d="m 199.35635,804.87917 c -4.005,0.57734 -5.53865,5.26413 -5.16324,8.79137 0.0695,3.22287 1.95295,7.10632 5.618,7.16571 27.73414,2.18271 55.58839,1.57388 83.38302,1.57056 12.00381,-0.18731 24.03168,-10e-4 36.0172,-0.69135 2.27909,-1.27768 2.49968,-4.41256 2.67804,-6.7709 0.50965,-4.47442 -3.72844,-7.97228 -7.93307,-8.09476 -14.26424,0.52117 -28.5745,0.31556 -42.84866,-0.11116 -14.23325,-0.48995 -28.44501,-1.68631 -42.68691,-1.83075 -8.99464,0.58956 -18.06024,0.82086 -27.05332,0.1835 -0.6546,-0.17785 -1.33209,-0.26616 -2.01106,-0.21222 z"
       id="path2875" />
    <path
       style="opacity:0.98999999;fill:#f1d73c;fill-opacity:1;stroke:none"
       d="m 245.72183,747.78131 c -1.94793,0.89258 -2.54078,3.35916 -4.00615,4.81714 -4.24314,6.05275 -9.51593,11.50509 -12.65833,18.25444 -0.50718,0.93334 -1.10838,2.97166 0.57603,2.99132 5.16031,0.39855 10.41634,-0.92258 15.51242,-0.0303 2.93596,0.94889 3.44938,4.35698 3.71894,6.99323 1.11527,2.3199 3.66554,3.58235 5.88159,4.6891 4.3494,2.21604 10.09742,0.70355 12.65999,-3.4758 2.39261,-2.91068 4.03684,-6.52077 6.82402,-9.05541 2.34707,-1.11787 4.78651,0.48577 6.49055,2.02769 2.9564,1.99728 6.81811,1.81287 10.25479,1.7923 1.86906,0.0447 4.98595,-0.8198 4.21412,-3.29449 -1.46661,-3.31654 -4.93383,-5.13925 -7.09428,-7.96338 -4.88102,-4.94373 -8.92726,-11.60894 -15.88634,-13.78434 -3.3175,-1.03182 -6.55593,0.65392 -9.51968,1.75842 -4.2453,0.19894 -8.62141,0.42149 -12.51233,2.33688 -4.3473,1.98461 -7.88991,5.8256 -9.39708,10.34592 -0.77738,1.37493 -3.4326,1.72663 -4.22423,0.27285 0.27844,-2.18174 2.89737,-3.12368 4.14167,-4.72571 2.90402,-3.00815 6.70108,-5.75824 7.92467,-9.92772 0.33599,-1.67511 -1.13992,-3.99338 -2.90037,-4.02212 z m 24.07205,8.43836 c 5.64686,3.13214 10.3988,7.84345 14.00667,13.16787 0.60351,1.06796 -1.56797,-1.13045 -2.05149,-1.35418 -4.00975,-3.33968 -9.00061,-5.60692 -12.27856,-9.72179 -0.45898,-0.61697 -0.35032,-1.74575 0.32338,-2.0919 z m -10.57068,4.98216 c 2.63736,1.50539 1.67109,5.09662 1.86674,7.58946 -0.27022,2.79444 0.41485,5.93318 -0.88647,8.51921 -0.46503,0.89962 -0.95391,0.39283 -0.94995,-0.36381 -0.66353,-4.87712 -1.05971,-9.90792 -0.40423,-14.80502 0.0797,-0.32131 0.15751,-0.69756 0.37391,-0.93984 z"
       id="path2877" />
    <path
       style="opacity:0.98999999;fill:#f1d73c;fill-opacity:1;stroke:none"
       d="m 226.15698,776.36055 c -3.92353,0.0669 -8.95331,1.91344 -9.52979,6.35656 -0.12131,2.06291 0.35667,4.86772 2.38497,5.86138 2.55284,0.12963 4.92754,1.75928 7.4783,1.55629 2.68137,-0.97418 5.3552,-2.21822 8.30699,-1.79883 4.40698,0.0599 8.78942,1.41591 13.17798,1.06111 1.61264,-1.13193 -0.12719,-3.25345 -0.49515,-4.6107 -1.55894,-3.1799 -3.28649,-7.48949 -7.22569,-8.13273 -1.87941,-0.18388 -3.4972,0.99114 -4.8508,2.15253 -2.82009,-1.59294 -5.96944,-2.6553 -9.24681,-2.44561 z"
       id="path2879" />
    <path
       style="opacity:0.98999999;fill:#f1d73c;fill-opacity:1;stroke:none"
       d="m 276.20097,777.06796 c -3.14944,0.44708 -4.48441,4.27782 -4.39603,7.08418 -0.0947,3.08351 2.48701,6.45059 5.85127,5.71989 5.21604,-0.81087 10.50918,0.4403 15.76504,0.18999 3.29666,-0.21524 6.85796,0.34763 9.98458,-0.84687 1.13277,-1.53985 -0.2341,-3.6821 -1.01058,-5.12364 -1.88579,-3.24354 -5.60611,-5.03986 -9.31756,-4.60826 -4.44111,-0.1779 -9.18353,0.58594 -13.41042,-0.90952 -0.98059,-0.81046 -2.11478,-1.6108 -3.4663,-1.50577 z"
       id="path2881" />
    <path
       style="opacity:0.98999999;fill:#ffffff;fill-opacity:1;stroke:none"
       d="m 290.18517,604.15776 c -1.5509,1.2079 -2.52064,3.1574 -5.11646,2.45818 -6.55172,0.99951 -14.22277,-1.47562 -20.12283,1.82935 -2.40308,2.52302 3.33322,2.39506 4.71166,2.63586 17.31566,1.39625 34.45553,5.06989 50.76904,10.71267 2.82815,-0.86231 -0.74873,-5.10018 -1.45776,-6.45989 -2.3784,-3.9772 -8.14289,-8.1586 -12.06227,-3.57294 -5.22435,4.06036 -9.76789,-2.7882 -13.3771,-5.94539 -0.99286,-0.69798 -2.01572,-1.83555 -3.34428,-1.65784 z"
       id="path2897" />
    <path
       style="opacity:0.98999999;fill:#ffffff;fill-opacity:1;stroke:none"
       d="m 257.59991,719.34952 c -6.24434,2.10332 -7.72032,10.23353 -8.57507,16.00679 -0.81662,4.74844 1.02306,10.65421 5.54521,12.60535 0.86822,-2.12819 -1.6767,-5.50675 1.5721,-6.68855 3.6939,-1.85585 5.40653,-5.73964 7.57464,-8.77515 0.44599,-2.31498 -3.28749,-6.78517 -1.27588,-7.13583 1.47312,0.98689 6.02076,0.71398 3.56256,-1.75366 -2.1988,-2.23361 -5.03374,-4.72386 -8.40356,-4.25895 z"
       id="path2899" />
    <path
       style="opacity:0.98999999;fill:#ffffff;fill-opacity:1;stroke:none"
       d="m 282.35327,794.78154 c -8.03624,0.39615 -16.42984,-0.40359 -24.26744,1.02901 -2.96317,2.92851 2.196,4.20024 4.40186,3.97312 15.16459,1.12519 30.55969,2.92881 45.70512,1.85793 2.52133,-2.64174 -0.70709,-6.96679 -4.11603,-6.40272 -7.21157,-0.70507 -14.48796,-0.43216 -21.72351,-0.45734 z"
       id="path2901" />
  </g>
</svg>
