<?xml version="1.0" encoding="UTF-8" standalone="no"?>
<svg xmlns="http://www.w3.org/2000/svg" width="100" height="331.49219">
  <path fill="#2b2111" d="M42.6224441 330.60207399c-11.14793466-5.58443071-4.37412166-19.5935933-8.85293644-29.03796815 4.85586502-8.81559354.52899693-19.2019227 2.67253552-28.78030762 2.12467442-7.06553829-7.01967813-9.94455037-8.64714177-16.53292368-.28724007-15.64003567-18.9550199-.21878444-25.0541999-11.78056588-9.2006062-10.07345688 6.90541316-25.03924073 16.75212741-16.48666118 4.30536108 1.77025355 14.4695853-.50477932 16.61904064-3.83896231-5.19122268-6.60702994-14.92756423-3.46418221-12.71005138-15.4409201 8.32116536-64.1456384 13.4395192-127.43662113 21.13430467-190.25883499.68785993-4.20818143.55182114-21.40838909 5.38428173-18.00122107.74744255 12.79736737 3.27903476 25.30242497 4.76281906 37.97428045 2.31367178 12.94210087 3.62572193 26.04370003 5.22631662 39.14019138 2.28104704 11.82004763 2.81045057 23.74462744 4.64802045 35.75833976 1.27478771 12.5391897 3.28752236 23.90122028 5.68927207 35.75884375 2.08719175 11.4490158 7.56915289 47.23548237 9.23752133 58.79294801-1.47485622 3.29255394 4.09262893 8.35021126-9.77932168 13.08514914 5.27367185.26092174 14.09334401-.439695 18.0962856 3.05268603 11.71201283 3.62159671 18.09026295 21.07855926 4.67604139 27.18781934-8.14572106 3.87077812-15.51921018-13.19453924-15.58402767 1.70408922-.93047233 11.53542922-17.33192713 15.09496565-14.21956107 28.13162026.99163473 8.38584732-3.24272105 14.52444977.91760963 23.87936175-5.74531818 6.93978286 1.74295261 17.0729833-4.93236355 22.60588275-4.3358851 4.41680108-10.36693559 4.6759355-16.03657266 3.08715314zm8.89419279-2.61626493c16.17004485-5.76697343-1.33518352-21.7030163-11.03047625-12.47965367-5.51029126 7.64710414 3.01923539 15.21140758 11.03047625 12.47965367zm-8.07621082-16.05366645c6.22593071-7.2257354 17.98872515 6.96608426 17.04652096-7.80445935.83329692-10.7502287-16.2183022-11.3308035-21.46851456-6.1623457-4.7176535 2.7872833-1.72508375 15.78512535 4.4219936 13.96680505zm14.3968774-19.46192113c3.62369743-10.51994959 2.92365246-24.89975437-11.53706407-20.81465586-11.38467689-4.91696812-10.94159785 22.25856453-1.54974956 20.55230682 4.54464875-.82204789 8.5365573 1.05081076 13.08681362.26234904zm.66194394-23.6927997c8.75503255-1.28468144 14.77371164-10.72194094 15.8353606-19.3247388 2.07216057-9.06404646.0657281-21.15979288-7.35339247-26.4695455-8.33368076 1.43757684 1.45774126 10.63638727-.2112286 15.94294222 1.47376774 9.89391276-4.40180379 21.43439473-15.39229005 20.8936024-12.03238166 2.61109359-13.21713473-13.84297248-21.58648967-14.40864314-4.50670866 9.12237542 6.37797483 21.57519827 15.37243482 23.53895557 4.34559248 1.00215106 8.93859175.04520368 13.33560537-.17257275zm-2.56334872-12.76731304c14.4384514-7.81359072-23.40599163-7.4200608-12.69189452-.50667675 3.23908713 2.24941335 8.94223414 1.4538278 12.69189452.50667675zm-6.1650182-9.13550071c10.2641399 1.6429014 18.9789707-1.85731922 12.86539481-13.53534777-2.74669614-10.17671845-18.89656812-6.27626761-25.24909708-2.8642562.88692467 9.32102087-2.24873147 21.07317616 12.38370227 16.39960397zm-3.97193897-4.72318061c-14.57097063-11.5270941 22.10781643-15.98268233 10.34450528-1.1448012-2.99182434 2.16729878-6.9378219 1.10915243-10.34450528 1.1448012zm6.27403983-2.74733568c13.01423701-6.64405096-16.73546562-6.31008673-3.53925343.4894093l1.58589387-.14734289 1.95335956-.34206641zm40.09469074 7.25030454c12.08708094-8.57949507-4.28080463-23.37213863-14.86632136-21.27918683-7.32083973 4.78626585 3.60547281 17.94984482 9.6052242 21.52280725 1.57965524 1.08537528 3.69100531.54676414 5.26109716-.24362042zm-70.510111-1.07873852c10.32582747 3.61915716 18.14377635-15.02157162 7.51203947-15.93741088-7.87577807 10.00444217-20.63487457-9.49533434-25.54598524 5.96478027-1.6820655 11.29380365 10.08766217 11.24838821 18.03394577 9.9726306zm39.10395814-22.3036115c6.38868174-9.57468324 18.89470457-4.00128133 14.54638878-17.83322501-1.5572334-11.82144529-4.42865577-27.69732106-4.98665625-39.60023292-2.24710087-12.51965212-5.36327025-25.06471623-6.44308455-37.7485001-1.7022638-11.42684806-3.20910523-22.79677753-4.4029685-34.35795756-2.29571822-12.81902642-2.61736187-26.47541568-5.31132393-39.23870516-1.06652383-9.08099625-4.20006654-32.12339455-6.3822271-42.7978172-6.30151018 62.55406835-13.50815694 139.50035608-21.09280267 201.9259169 5.68843347 2.7041099 12.53753369 11.78551698 19.6328167 10.1147598 4.80731543-.08743838 9.68130767.24752115 14.43985752-.46423874z"/>
  <path fill="#f1500f" d="M49.86301 234.59235c-1.64067.13838-4.75807.3782-4.78638 2.52689 1.37021 2.08237 3.91463 3.66302 6.40412 2.44667 1.55762-.59966 4.62113-1.98431 3.69006-4.06442-1.50436-.97479-3.55571-.87299-5.3078-.90914zm-.49468 15.66938c-2.70249.30637-6.51456.0522-8.07535 2.67396-.10082 2.34446 3.01198 3.10786 4.77301 3.77028 3.49922.58293 7.38347.40941 10.61561-1.06959 1.29815-.72085 3.69119-2.91963 1.7247-4.21148-2.7446-1.34086-6.05845-1.10455-9.03797-1.16317zm.90796 20.52423c-1.98354.14967-3.96599.80965-5.92757.15126-3.61697-.48161-5.89397 3.27046-6.34354 6.40026-.67346 4.66204-.58877 10.25471 2.87397 13.84045 2.35718 2.19992 5.86128.74396 8.71614 1.2146 2.69912.0503 5.64749 1.0241 8.23463.0238 2.00975-4.53177 2.21318-9.78908 1.51262-14.66294-.72674-4.26809-4.71952-7.37313-9.06625-6.9675z" opacity=".98999999"/>
  <path fill="#f4ee09" d="M10.19191 229.37196c-2.77582-.22639-5.07571 1.7893-5.93702 4.31096-2.26572 4.15938-.42457 10.20605 4.32042 11.60934 5.10908 1.86972 10.66097.23995 15.95811.77522 5.52297-.0131 9.46932-5.6475 9.82257-10.7774.40676-2.9098-.87218-6.29398-4.48577-5.50215-1.52119 1.12155-3.88233 2.74454-5.99857 2.40128-4.84672.55242-8.94692-2.83102-13.67974-2.81725zm40.89741-2.57145c-4.78635.14267-9.76908 1.23569-13.81209 3.71537.30208 4.84453-.35954 9.99551 1.49371 14.58731 1.58207 3.29536 5.95079 3.39767 9.00953 2.49582 4.72344-.89849 10.16085.81563 14.31315-2.2122 2.65969-1.61621 3.09245-5.05704 2.3351-7.79944-1.1062-4.54498-3.6768-9.92205-8.86772-10.57887-1.47732-.22356-2.98092-.23093-4.47168-.20799zm.56723 5.03891c2.53126.0305 6.39512.69094 6.56098 3.82881-.0273 3.4825-3.09704 6.81263-6.73108 6.35943-1.92017-.1089-4.08063.29317-5.84498-.20489-1.57006-1.56299-3.96357-3.91949-2.69193-6.31525 2.00076-2.68178 5.49707-3.61798 8.70701-3.6681zm27.14204-6.73115c-3.17976-.15874-4.65274 3.79194-3.92335 6.43808 1.29988 5.51215 5.36253 9.90532 9.41884 13.63082 1.90323 1.8721 4.82155 3.15341 7.36176 1.79788 4.50109-1.99229 6.12904-8.03457 3.6681-12.20493-2.86359-5.09842-8.27072-8.67108-14.02953-9.55786-.82809-.10391-1.66197-.13387-2.49582-.10399z" opacity=".98999999"/>
  <path fill="#f4ee09" d="M66.19659 222.91497c-2.11831.45285-3.41914 2.90736-2.46746 4.93492 1.34669 4.16944 3.48978 8.24804 2.94015 12.77217.21645 4.88562-.89737 9.98246-4.08406 13.77427-2.66327 3.56957-7.07802 5.45547-11.51401 5.24007-2.80391.28052-5.81968.0684-7.96095-1.92176-4.29752-3.53946-6.42266-9.35367-11.3919-12.09149-1.35916-.80618-2.69464.39823-2.78889 1.78678-1.42958 6.49883 2.72385 12.73946 7.33619 16.86569 4.06397 3.76147 9.60943 5.83205 15.16334 5.24714 4.71498-.45467 9.95925-.22022 13.78254-3.46909 6.15182-4.51335 8.99587-12.11741 9.76328-19.49274.92063-8.05281-.67827-17.25691-6.94418-22.83292-.50262-.44776-1.12557-.88118-1.83405-.81304zm-18.45394 71.81154c-4.29392.10462-9.40993 1.92389-10.94757 6.28681-.71532 3.81998.30759 8.52594 3.6681 10.81522 1.37108.69467 3.15158.578 4.16915-.64286 3.09805-2.33876 6.95918-.61107 10.34733-.12678 1.82383.51411 4.52442.4823 5.10028-1.76399.96163-3.25178 1.12119-7.14979-.64286-10.144-2.53917-3.70209-7.50789-4.5523-11.69443-4.4244zm-.74685 18.00015c-4.29809-.29811-8.44007 3.24733-8.39503 7.62927-.174 4.011 3.49972 7.44728 7.26056 8.08305 3.25274.37331 6.65089-.10611 9.29315-2.15548 2.65742-1.60277 4.12666-5.32326 2.22166-8.04524-2.07523-3.5499-6.19143-6.01533-10.38034-5.5116z" opacity=".98999999"/>
  <path fill="#d2f2f3" fill-opacity=".99215686" stroke="#d7e2e5" stroke-opacity=".20855324" stroke-width=".42783293" d="M39.53128 218.10243c.51313 2.49136 5.19608 6.18199 15.47056 5.63527 2.5661-.0635 5.96613.28568 7.49561-2.36413 3.65467-3.85314 9.78398-4.07697 13.07565-8.26252 1.79711-3.40328-.46193-7.47952-.60007-11.07854-2.93888-17.37489-3.90508-35.03575-7.60869-52.28488-3.17958-16.47712-4.84501-33.20007-7.04438-49.82692-2.28387-17.07493-4.05056-34.21829-6.78026-51.23121-1.39273-11.0617-2.8898-27.37741-5.6569-37.08328-7.06079 44.57234-9.81292 142.92515-8.35152 206.49621z" opacity=".98999999"/>
  <path fill="#8ccce8" stroke="#d7e2e5" stroke-opacity=".20855324" stroke-width=".30488178" d="M47.17496 12.53662c-1.49795 12.07639-2.50535 24.28175-3.77735 36.41096-5.4171 54.66171-10.62633 109.36052-17.02896 163.90842.3108 1.72927 2.54386 2.05388 3.59092 3.24414 4.20386 2.88787 6.49359 6.94214 11.59751 8.05808 3.76999.0637 9.08506-.10542 12.86842-.20164 1.69036-.1891.97594-2.4781 1.55977-3.62017.88352-5.20222-.0833-10.52761-.12459-15.76273-.88445-19.78118-1.6386-39.61558-2.70885-59.38514-1.37119-33.30508-2.41481-66.62364-3.86501-99.92582-.46329-10.80518-.73045-21.62735-1.13818-32.42842-.0386-.51624-.65848-.64428-.97368-.29768z" opacity=".98999999"/>
</svg>